<svg width="80" height="80" viewBox="0 0 80 80" fill="none" xmlns="http://www.w3.org/2000/svg">
<path d="M40 1.5C47.6146 1.5 55.0582 3.75798 61.3895 7.98842C67.7208 12.2189 72.6554 18.2317 75.5694 25.2667C78.4833 32.3016 79.2458 40.0427 77.7602 47.511C76.2747 54.9792 72.6079 61.8393 67.2236 67.2236C61.8393 72.6079 54.9793 76.2747 47.511 77.7602C40.0427 79.2458 32.3017 78.4833 25.2667 75.5693C18.2317 72.6554 12.2189 67.7207 7.98844 61.3894C3.758 55.0582 1.50002 47.6146 1.50002 40C1.51166 29.7927 5.57164 20.0069 12.7893 12.7892C20.0069 5.57162 29.7928 1.51165 40 1.5ZM40 0C32.0888 0 24.3552 2.34596 17.7772 6.74121C11.1992 11.1365 6.07234 17.3836 3.04484 24.6927C0.0173311 32.0017 -0.774802 40.0444 0.768607 47.8036C2.31202 55.5628 6.12165 62.6902 11.7157 68.2843C17.3098 73.8784 24.4372 77.688 32.1964 79.2314C39.9556 80.7748 47.9983 79.9827 55.3073 76.9552C62.6164 73.9277 68.8635 68.8008 73.2588 62.2228C77.654 55.6448 80 47.9112 80 40C80 29.3913 75.7857 19.2172 68.2843 11.7157C60.7828 4.21427 50.6087 0 40 0V0Z" fill="white"/>
<path d="M51.9488 25.3613C52.1297 25.2663 52.3243 25.1916 52.5233 25.1419C52.8128 25.0537 53.1181 25.0356 53.4166 25.0854C53.7151 25.1351 53.9978 25.2527 54.2398 25.4291C54.4817 25.6055 54.6763 25.8339 54.8097 26.0962C54.9409 26.3586 55.0064 26.648 54.9996 26.9398V49.3896C54.9861 49.8713 54.8414 50.3394 54.5812 50.7488C54.3189 51.158 53.9503 51.4927 53.5093 51.7211L37.7241 59.7857C36.3853 60.4732 34.9786 59.892 34.6938 58.6707C34.6599 58.5193 34.6439 58.3655 34.6462 58.2094V35.7527C34.662 35.2665 34.8113 34.7962 35.0781 34.3868C35.3451 33.9776 35.7204 33.6429 36.1659 33.4189L44.8524 29.043L47.4101 27.7064L49.9747 26.3699L51.9488 25.3613Z" fill="white"/>
<path fill-rule="evenodd" clip-rule="evenodd" d="M49.7042 21.6981C49.9999 22.2482 49.7938 22.9338 49.2437 23.2295L33.7544 31.556C32.8849 32.1185 32.5747 32.7146 32.4534 33.108C32.3886 33.3184 32.3714 33.4934 32.3688 33.6057C32.3675 33.6618 32.3698 33.7006 32.3714 33.7187C32.3714 33.7205 32.3716 33.7221 32.3718 33.7235L32.3847 33.7991V56.0858C32.3847 56.7102 31.8785 57.2166 31.254 57.2166C30.6296 57.2166 30.1233 56.7102 30.1233 56.0858V33.9665C30.1213 33.9479 30.1194 33.9276 30.1176 33.9058C30.1101 33.8152 30.1046 33.6958 30.1079 33.5529C30.1146 33.2671 30.1568 32.8819 30.2921 32.4423C30.5697 31.5409 31.2165 30.4893 32.5743 29.6263L32.6091 29.6042L48.1728 21.2375C48.723 20.9419 49.4085 21.148 49.7042 21.6981Z" fill="white"/>
<path fill-rule="evenodd" clip-rule="evenodd" d="M43.5491 19.6611C43.8369 20.2153 43.6213 20.8979 43.0672 21.1859L29.2255 28.3782C28.3933 28.9203 28.0723 29.5586 27.9393 30.0373C27.8691 30.2903 27.849 30.5097 27.8459 30.6594C27.8444 30.7337 27.8471 30.7887 27.8493 30.8192C27.8501 30.8297 27.8508 30.8373 27.8512 30.8415L27.8619 30.9125V53.8245C27.8619 54.4488 27.3556 54.9552 26.7311 54.9552C26.1066 54.9552 25.6004 54.4488 25.6004 53.8245V31.0609C25.5981 31.0381 25.5959 31.012 25.5938 30.9829C25.587 30.8894 25.5818 30.7639 25.5849 30.6127C25.5912 30.3116 25.6304 29.8999 25.7604 29.4321C26.0256 28.4771 26.6601 27.3288 28.0514 26.4446L28.0929 26.4182L42.0244 19.1791C42.5785 18.8912 43.2612 19.107 43.5491 19.6611Z" fill="white"/>
</svg>
