<svg width="80" height="80" viewBox="0 0 80 80" fill="none" xmlns="http://www.w3.org/2000/svg">
<path d="M40 1.5C47.6146 1.5 55.0582 3.75798 61.3895 7.98842C67.7208 12.2189 72.6554 18.2317 75.5694 25.2667C78.4833 32.3016 79.2458 40.0427 77.7602 47.511C76.2747 54.9792 72.6079 61.8393 67.2236 67.2236C61.8393 72.6079 54.9793 76.2747 47.511 77.7602C40.0427 79.2457 32.3017 78.4833 25.2667 75.5693C18.2317 72.6554 12.2189 67.7207 7.98844 61.3894C3.758 55.0582 1.50002 47.6146 1.50002 40C1.51166 29.7927 5.57164 20.0069 12.7893 12.7892C20.0069 5.57162 29.7928 1.51165 40 1.5V1.5ZM40 0C32.0888 0 24.3552 2.34596 17.7772 6.74121C11.1992 11.1365 6.07234 17.3836 3.04484 24.6927C0.0173311 32.0017 -0.774802 40.0444 0.768607 47.8036C2.31202 55.5628 6.12165 62.6902 11.7157 68.2843C17.3098 73.8784 24.4372 77.688 32.1964 79.2314C39.9556 80.7748 47.9983 79.9827 55.3073 76.9552C62.6164 73.9277 68.8635 68.8008 73.2588 62.2228C77.654 55.6448 80 47.9112 80 40C80 29.3913 75.7857 19.2172 68.2843 11.7157C60.7828 4.21427 50.6087 0 40 0V0Z" fill="white"/>
<path d="M41 41C42.6569 41 44 39.433 44 37.5C44 35.567 42.6569 34 41 34C39.3431 34 38 35.567 38 37.5C38 39.433 39.3431 41 41 41Z" fill="white"/>
<path d="M34.9991 23.0006H23.0716C22.2599 22.9978 21.4803 23.3238 20.9042 23.9068C20.3282 24.4899 20.003 25.2823 20 26.1097V52.8912C20.0015 53.301 20.0821 53.7064 20.2373 54.0845C20.3925 54.4625 20.6193 54.8056 20.9046 55.0943C21.1899 55.383 21.5282 55.6115 21.9002 55.7669C22.2722 55.9223 22.6705 56.0015 23.0726 56H34.9359C32.1914 54.2472 29.9299 51.8112 28.3644 48.9214C26.7988 46.0315 25.9807 42.783 25.9871 39.4819C25.9935 36.1807 26.8242 32.9355 28.401 30.052C29.9778 27.1685 32.2488 24.7417 35 23L34.9991 23.0006ZM24.6858 25.4334C25.1381 25.4368 25.5793 25.5766 25.9537 25.8352C26.3281 26.0938 26.619 26.4596 26.7898 26.8865C26.9606 27.3134 27.0035 27.7823 26.9132 28.234C26.8229 28.6857 26.6035 29.1001 26.2825 29.4249C25.9615 29.7497 25.5534 29.9703 25.1095 30.059C24.6657 30.1477 24.206 30.1005 23.7885 29.9233C23.371 29.7461 23.0143 29.4468 22.7633 29.0633C22.5124 28.6797 22.3785 28.2291 22.3785 27.768C22.3809 27.1466 22.6253 26.5516 23.058 26.1138C23.4906 25.676 24.0762 25.4312 24.6858 25.4334V25.4334Z" fill="#E1E8F6"/>
<path fill-rule="evenodd" clip-rule="evenodd" d="M45.5 27.5833C38.9186 27.5833 33.5833 32.9186 33.5833 39.5C33.5833 46.0814 38.9186 51.4167 45.5 51.4167C52.0814 51.4167 57.4167 46.0814 57.4167 39.5C57.4167 32.9186 52.0814 27.5833 45.5 27.5833ZM29 39.5C29 30.3873 36.3873 23 45.5 23C54.6127 23 62 30.3873 62 39.5C62 48.6127 54.6127 56 45.5 56C36.3873 56 29 48.6127 29 39.5Z" fill="white"/>
</svg>
