<svg width="80" height="80" viewBox="0 0 80 80" fill="none" xmlns="http://www.w3.org/2000/svg">
<path d="M40 1.5C47.6146 1.5 55.0582 3.75798 61.3895 7.98842C67.7208 12.2189 72.6554 18.2317 75.5694 25.2667C78.4833 32.3016 79.2458 40.0427 77.7602 47.511C76.2747 54.9792 72.6079 61.8393 67.2236 67.2236C61.8393 72.6079 54.9793 76.2747 47.511 77.7602C40.0427 79.2458 32.3017 78.4833 25.2667 75.5693C18.2317 72.6554 12.2189 67.7207 7.98844 61.3894C3.758 55.0582 1.50002 47.6146 1.50002 40C1.51166 29.7927 5.57164 20.0069 12.7893 12.7892C20.0069 5.57162 29.7928 1.51165 40 1.5ZM40 0C32.0888 0 24.3552 2.34596 17.7772 6.74121C11.1992 11.1365 6.07234 17.3836 3.04484 24.6927C0.0173311 32.0017 -0.774802 40.0444 0.768607 47.8036C2.31202 55.5628 6.12165 62.6902 11.7157 68.2843C17.3098 73.8784 24.4372 77.688 32.1964 79.2314C39.9556 80.7748 47.9983 79.9827 55.3073 76.9552C62.6164 73.9277 68.8635 68.8008 73.2588 62.2228C77.654 55.6448 80 47.9112 80 40C80 29.3913 75.7857 19.2172 68.2843 11.7157C60.7828 4.21427 50.6087 0 40 0V0Z" fill="white"/>
<path d="M51.0335 57.25H28.4779C27.8335 57.25 27.5112 57.0889 27.5112 56.4445C27.5112 55.8 27.8335 55.6389 28.4779 55.6389H51.0335C51.6779 55.6389 52.0001 55.8 52.0001 56.4445C52.0001 57.0889 51.5168 57.25 51.0335 57.25Z" fill="white"/>
<path d="M51.0336 50.8056H47.8114C47.3281 50.8056 47.0059 50.4834 47.0059 50V33.8889C47.0059 33.4056 47.3281 33.0834 47.8114 33.0834H51.0336C51.517 33.0834 51.8392 33.4056 51.8392 33.8889V50C51.8392 50.4834 51.517 50.8056 51.0336 50.8056Z" fill="white"/>
<path d="M31.7001 50.8055H28.4779C27.9946 50.8055 27.6724 50.4833 27.6724 50V30.6666C27.6724 30.1833 27.9946 29.8611 28.4779 29.8611H31.7001C32.1835 29.8611 32.5057 30.1833 32.5057 30.6666V50C32.5057 50.4833 32.1835 50.8055 31.7001 50.8055Z" fill="white"/>
<path d="M41.3666 50.8055H38.1444C37.6611 50.8055 37.3389 50.4833 37.3389 50V24.2222C37.3389 23.7388 37.6611 23.4166 38.1444 23.4166H41.3666C41.85 23.4166 42.1722 23.7388 42.1722 24.2222V50C42.1722 50.4833 41.85 50.8055 41.3666 50.8055Z" fill="white"/>
</svg>
