<svg width="80" height="80" viewBox="0 0 80 80" fill="none" xmlns="http://www.w3.org/2000/svg">
<path d="M40 1.5C47.6146 1.5 55.0582 3.75798 61.3895 7.98842C67.7208 12.2189 72.6554 18.2317 75.5694 25.2667C78.4833 32.3016 79.2458 40.0427 77.7602 47.511C76.2747 54.9792 72.6079 61.8393 67.2236 67.2236C61.8393 72.6079 54.9793 76.2747 47.511 77.7602C40.0427 79.2458 32.3017 78.4833 25.2667 75.5693C18.2317 72.6554 12.2189 67.7207 7.98844 61.3894C3.758 55.0582 1.50002 47.6146 1.50002 40C1.51166 29.7927 5.57164 20.0069 12.7893 12.7892C20.0069 5.57162 29.7928 1.51165 40 1.5ZM40 0C32.0888 0 24.3552 2.34596 17.7772 6.74121C11.1992 11.1365 6.07234 17.3836 3.04484 24.6927C0.0173311 32.0017 -0.774802 40.0444 0.768607 47.8036C2.31202 55.5628 6.12165 62.6902 11.7157 68.2843C17.3098 73.8784 24.4372 77.688 32.1964 79.2314C39.9556 80.7748 47.9983 79.9827 55.3073 76.9552C62.6164 73.9277 68.8635 68.8008 73.2588 62.2228C77.654 55.6448 80 47.9112 80 40C80 29.3913 75.7857 19.2172 68.2843 11.7157C60.7828 4.21427 50.6087 0 40 0V0Z" fill="white"/>
<path fill-rule="evenodd" clip-rule="evenodd" d="M18.3999 43.4273C18.3999 48.6321 22.5537 52.8667 27.7272 52.9969V53H53.2544C57.8635 53 61.5999 49.2636 61.5999 44.6545C61.5999 40.4222 58.4494 36.9256 54.3655 36.3824C52.9582 30.4296 47.6099 26 41.2272 26C35.7681 26 31.0657 29.2403 28.9386 33.9027C28.6209 33.8708 28.2987 33.8545 27.9726 33.8545C22.6858 33.8545 18.3999 38.1404 18.3999 43.4273ZM39.2285 48.5818H36.9229L40.7711 36.309H43.0766L39.2285 48.5818ZM28.2181 41.994L35.8149 38.6499V40.8068L30.9052 42.8969L35.8149 44.9869V47.1773L28.2181 43.8332V41.994ZM49.0946 42.947L44.1849 45.0203V47.1773L51.7817 43.8332V41.994L44.1849 38.6499V40.8403L49.0946 42.947Z" fill="white"/>
</svg>
