<svg width="80" height="80" viewBox="0 0 80 80" fill="none" xmlns="http://www.w3.org/2000/svg">
<path d="M40 1.5C47.6146 1.5 55.0582 3.75798 61.3895 7.98842C67.7208 12.2189 72.6554 18.2317 75.5694 25.2667C78.4833 32.3016 79.2458 40.0427 77.7602 47.511C76.2747 54.9792 72.6079 61.8393 67.2236 67.2236C61.8393 72.6079 54.9793 76.2747 47.511 77.7602C40.0427 79.2457 32.3017 78.4833 25.2667 75.5693C18.2317 72.6554 12.2189 67.7207 7.98844 61.3894C3.758 55.0582 1.50002 47.6146 1.50002 40C1.51166 29.7927 5.57164 20.0069 12.7893 12.7892C20.0069 5.57162 29.7928 1.51165 40 1.5V1.5ZM40 0C32.0888 0 24.3552 2.34596 17.7772 6.74121C11.1992 11.1365 6.07234 17.3836 3.04484 24.6927C0.0173311 32.0017 -0.774802 40.0444 0.768607 47.8036C2.31202 55.5628 6.12165 62.6902 11.7157 68.2843C17.3098 73.8784 24.4372 77.688 32.1964 79.2314C39.9556 80.7748 47.9983 79.9827 55.3073 76.9552C62.6164 73.9277 68.8635 68.8008 73.2588 62.2228C77.654 55.6448 80 47.9112 80 40C80 29.3913 75.7857 19.2172 68.2843 11.7157C60.7828 4.21427 50.6087 0 40 0V0Z" fill="white"/>
<path d="M57.325 37.144C56.8965 34.4804 55.8513 31.9539 54.273 29.766L56.87 27.169L52.831 23.13L50.22 25.741C48.0354 24.1647 45.5145 23.1174 42.856 22.682V19H37.144V22.682C34.4855 23.1174 31.9646 24.1647 29.78 25.741L27.169 23.13L23.13 27.169L25.727 29.766C24.1487 31.9539 23.1035 34.4804 22.675 37.144H19V42.856H22.675C23.1035 45.5196 24.1487 48.0461 25.727 50.234L23.13 52.831L27.169 56.87L29.78 54.259C31.9646 55.8354 34.4855 56.8825 37.144 57.318V61H42.856V57.318C45.5145 56.8825 48.0354 55.8354 50.22 54.259L52.831 56.87L56.87 52.831L54.273 50.234C55.8513 48.0461 56.8965 45.5196 57.325 42.856H61V37.144H57.325ZM40 55.288C36.9763 55.288 34.0205 54.3914 31.5064 52.7115C28.9923 51.0316 27.0328 48.644 25.8757 45.8505C24.7186 43.0569 24.4159 39.983 25.0058 37.0175C25.5956 34.0519 27.0517 31.3278 29.1898 29.1898C31.3278 27.0517 34.0519 25.5956 37.0175 25.0058C39.983 24.4159 43.0569 24.7186 45.8505 25.8757C48.644 27.0328 51.0316 28.9923 52.7115 31.5064C54.3914 34.0205 55.288 36.9763 55.288 40C55.288 44.0546 53.6773 47.9432 50.8102 50.8102C47.9432 53.6773 44.0546 55.288 40 55.288V55.288Z" fill="white"/>
<path d="M48.8412 46.0341C48.8159 45.2614 48.684 44.4958 48.4492 43.7591C48.3418 43.426 48.1599 43.1217 47.9173 42.8694C47.6748 42.6171 47.3779 42.4235 47.0492 42.3031C46.3287 42.0154 45.5769 41.8134 44.8092 41.7011C44.2316 41.6094 43.6642 41.4617 43.1152 41.2601C42.8439 41.1361 42.6045 40.9517 42.4152 40.7211C42.3053 40.5929 42.2113 40.4519 42.1352 40.3011L42.0022 40.0491L42.2192 39.8741C42.5547 39.5935 42.8451 39.2629 43.0802 38.8941C43.4385 38.2984 43.6896 37.6445 43.8222 36.9621L43.8642 36.7521L44.0672 36.6961C44.1909 36.6515 44.295 36.5648 44.3612 36.4511C44.5029 36.2402 44.5984 36.0016 44.6412 35.7511C44.7119 35.4286 44.675 35.0917 44.5362 34.7921L44.4662 34.6731V34.5331L44.5082 34.3721C44.584 33.952 44.6075 33.524 44.5782 33.0981C44.5678 32.5951 44.5139 32.0939 44.4172 31.6001C44.1744 30.8483 43.68 30.2031 43.0172 29.7731C42.1561 29.1714 41.1276 28.8556 40.0772 28.8701H39.8952C38.8448 28.8556 37.8164 29.1714 36.9552 29.7731C36.2924 30.2031 35.798 30.8483 35.5552 31.6001C35.4357 32.1012 35.3607 32.6118 35.3312 33.1261C35.302 33.552 35.3255 33.98 35.4012 34.4001L35.4432 34.5611V34.7011L35.3732 34.8201C35.2344 35.1197 35.1976 35.4566 35.2682 35.7791C35.3111 36.0296 35.4065 36.2682 35.5482 36.4791C35.6144 36.5928 35.7185 36.6795 35.8422 36.7241L36.0452 36.7801L36.0872 36.9901C36.2198 37.6725 36.4709 38.3264 36.8292 38.9221C37.0643 39.2909 37.3547 39.6215 37.6902 39.9021L37.9072 40.0771L37.7742 40.3291C37.6981 40.4799 37.6041 40.6209 37.4942 40.7491C37.3049 40.9797 37.0655 41.1641 36.7942 41.2881C36.2452 41.4897 35.6779 41.6374 35.1002 41.7291C34.3325 41.8414 33.5807 42.0434 32.8602 42.3311C32.5316 42.4515 32.2347 42.6451 31.9921 42.8974C31.7495 43.1497 31.5676 43.454 31.4602 43.7871C31.2255 44.5238 31.0936 45.2894 31.0682 46.0621C31.0358 46.1952 31.0171 46.3312 31.0122 46.4681V47.3921C31.0176 47.81 31.1861 48.2092 31.4816 48.5047C31.7771 48.8002 32.1763 48.9687 32.5942 48.9741H47.2242C47.6421 48.9687 48.0413 48.8002 48.3368 48.5047C48.6323 48.2092 48.8008 47.81 48.8062 47.3921V46.4401C48.8315 46.3063 48.8432 46.1703 48.8412 46.0341V46.0341Z" fill="white"/>
</svg>
