<svg width="42" height="42" viewBox="0 0 42 42" fill="none" xmlns="http://www.w3.org/2000/svg">
<path d="M32.8 19.1L21.3 10.2C21.1 10.1 20.9 10.1 20.7 10.2L9.19998 19.1C8.99998 19.3 8.89998 19.6 9.09998 19.8C9.19998 19.9 9.29998 20 9.49998 20H11.5C11.8 20 12 20.2 12 20.5V30.5C12 30.8 12.2 31 12.5 31H17.5C17.8 31 18 30.8 18 30.5V23.2C18 22 19 21 20.2 21H21.8C23 21 24 22 24 23.2V30.5C24 30.8 24.2 31 24.5 31H29.5C29.8 31 30 30.8 30 30.5V20.5C30 20.2 30.2 20 30.5 20H32.6C32.9 20 33.1 19.8 33.1 19.5C33 19.4 33 19.2 32.8 19.1Z" fill="white"/>
</svg>
