<svg width="423" height="28" viewBox="0 0 423 28" fill="none" xmlns="http://www.w3.org/2000/svg">
<path d="M16.1472 14.4981C16.1472 18.2961 13.9632 22.4152 8.11777 22.4152C3.85413 22.4312 -1.83779e-07 20.0224 -1.83779e-07 14.4981C-1.83779e-07 9.89725 2.90666 6.35627 8.66377 6.66942C14.7902 7.01469 16.1472 11.7601 16.1472 14.4981ZM5.21111 11.6075C4.69057 12.4709 4.43121 13.4665 4.46437 14.474C4.46437 16.8026 5.61258 18.9143 8.09368 18.9143C10.5748 18.9143 11.6587 16.9712 11.6587 14.6667C11.7144 14.0018 11.6335 13.3326 11.4208 12.7001C11.2082 12.0677 10.8683 11.4854 10.4222 10.9893C10.0727 10.6774 9.66026 10.4443 9.21279 10.3057C8.76532 10.1672 8.29329 10.1265 7.82871 10.1863C7.30647 10.1751 6.79034 10.3003 6.33129 10.5495C5.87223 10.7988 5.48613 11.1634 5.21111 11.6075Z" fill="white"/>
<path d="M55.4273 8.3635C55.8303 7.86099 56.3405 7.45496 56.9207 7.17514C57.7897 6.83161 58.7163 6.65719 59.6507 6.66126C60.5758 6.63345 61.4936 6.8319 62.3246 7.23938C63.9304 8.04232 64.3078 9.42339 64.3078 11.76V22.0376H59.9157V13.5987C59.9913 12.8433 59.9232 12.0805 59.715 11.3505C59.5401 10.9803 59.2567 10.6721 58.9024 10.467C58.5481 10.2619 58.1398 10.1696 57.7317 10.2022C55.4032 10.2022 55.4032 12.0731 55.4032 13.944V22.0376H50.9629V7.04667H55.4273V8.3635Z" fill="white"/>
<path d="M48.8591 18.1596C48.4496 19.0187 47.1488 22.4152 41.3756 22.4152C36.9113 22.4152 33.7798 19.6852 33.7798 14.7631C33.7798 11.1338 35.5623 6.66944 41.4961 6.66944C42.4859 6.58863 43.4815 6.72177 44.4153 7.05982C45.3491 7.39787 46.1992 7.93292 46.9079 8.62862C48.8671 10.7323 48.9795 13.6631 49.0357 15.3653H38.3004C38.3004 17.2362 39.3362 19.107 41.7209 19.107C44.1056 19.107 44.9327 17.5012 45.5188 16.4573L48.8591 18.1596ZM44.4589 12.6032C44.4302 11.8254 44.1483 11.0783 43.656 10.4754C43.0647 9.94224 42.2921 9.65503 41.4961 9.67245C41.0739 9.67084 40.656 9.7571 40.2689 9.92575C39.8819 10.0944 39.5341 10.3417 39.2478 10.652C38.77 11.216 38.461 11.9035 38.3566 12.6353L44.4589 12.6032Z" fill="white"/>
<path d="M110.477 10.1543H113.424V7.0469H110.517V3.8833H106.117V7.03887H105.394L103.379 10.1543H106.093V17.2925C106.093 18.7297 106.093 19.7977 106.727 20.6889C107.675 22.07 109.345 22.1583 110.87 22.1583C111.652 22.1451 112.43 22.0672 113.199 21.9255V18.4728L111.593 18.529C110.413 18.529 110.413 17.7261 110.445 16.8348L110.477 10.1543Z" fill="white"/>
<path d="M66.5239 3.8833H70.924V7.03887H75.5008L73.4854 10.1543H70.8678V16.8107C70.8678 17.7341 70.8678 18.5049 72.016 18.5049L73.6219 18.4487V21.9014C72.8535 22.0431 72.0747 22.121 71.2934 22.1342C69.7678 22.1342 68.0816 22.0459 67.1502 20.6648C66.548 19.7736 66.5159 18.7056 66.5159 17.2684L66.5239 3.8833Z" fill="white"/>
<path d="M117.495 10.1543H116.949V7.50455H115.945V7.04688H118.475V7.50455H117.487L117.495 10.1543ZM121.759 10.1543H121.221V8.23523V7.60091L121.068 8.12282L120.434 10.1543H119.944L119.318 8.12282L119.157 7.60894V8.23523V10.1543H118.635V7.04688H119.374L120.177 9.50388L120.94 7.04688H121.678L121.759 10.1543Z" fill="white"/>
<path d="M89.3356 18.1676L88.5327 19.4683C87.7298 20.6246 86.2604 22.4071 82.0048 22.4071C77.5404 22.4071 74.5454 19.6771 74.5454 14.7551C74.5454 11.1257 76.3279 6.66138 82.2617 6.66138C83.2515 6.58057 84.2471 6.71371 85.1809 7.05177C86.1147 7.38982 86.9648 7.92486 87.6735 8.62056C89.6327 10.7243 89.7451 13.655 89.8014 15.3573H79.066C79.066 17.2281 79.9653 19.099 82.35 19.099C84.7348 19.099 85.4655 17.4931 86.0115 16.4493L89.3356 18.1676ZM85.1844 12.6032C85.1557 11.8254 84.8737 11.0783 84.3815 10.4754C83.7902 9.94221 83.0176 9.655 82.2216 9.67242C81.7994 9.67081 81.3814 9.75707 80.9944 9.92572C80.6073 10.0944 80.2596 10.3417 79.9733 10.652C79.4954 11.216 79.1865 11.9035 79.082 12.6353L85.1844 12.6032Z" fill="white"/>
<path d="M104.463 22.0378L98.9547 14.1449L103.548 7.03882H98.505L96.3371 10.3951L94.0005 7.03882H88.958L93.9122 14.1449L88.8135 22.0378H93.856L96.5298 17.8946L99.4204 22.0378H104.463Z" fill="white"/>
<path d="M22.2337 8.36379C22.7152 7.79596 23.3218 7.34746 24.0059 7.05351C24.6899 6.75955 25.4328 6.62814 26.1761 6.66958C29.8617 6.66958 32.4471 9.46383 32.4471 14.4662C32.4471 17.5414 31.323 22.4073 26.0236 22.4073C25.3069 22.4241 24.5954 22.2807 23.9412 21.9876C23.2869 21.6945 22.7063 21.2591 22.2417 20.7131V27.0001H17.7773V7.04696H22.2417L22.2337 8.36379ZM25.2287 10.1222C24.7886 10.1204 24.3542 10.221 23.9598 10.4161C23.5654 10.6112 23.2218 10.8955 22.9563 11.2464C22.2922 12.211 21.9673 13.3691 22.0329 14.5384C21.9501 15.7817 22.3305 17.0117 23.1009 17.9911C23.3511 18.2762 23.6583 18.5056 24.0027 18.6647C24.347 18.8237 24.7209 18.9088 25.1002 18.9145C27.2601 18.9145 28.2076 16.6421 28.2076 14.4421C28.2076 12.5953 27.6616 10.6361 25.8469 10.2106C25.6453 10.1564 25.4374 10.1294 25.2287 10.1303V10.1222Z" fill="white"/>
<path d="M129 2H128V26H129V2Z" fill="white"/>
<path d="M138.659 7.006H143.909C145.001 7.006 145.974 7.16 146.828 7.468C147.696 7.762 148.424 8.217 149.012 8.833C149.614 9.449 150.076 10.219 150.398 11.143C150.72 12.067 150.881 13.152 150.881 14.398C150.881 15.658 150.706 16.764 150.356 17.716C150.02 18.668 149.53 19.459 148.886 20.089C148.242 20.719 147.458 21.195 146.534 21.517C145.61 21.839 144.574 22 143.426 22H138.659V7.006ZM143.51 20.32C145.372 20.32 146.73 19.802 147.584 18.766C148.438 17.716 148.865 16.274 148.865 14.44C148.865 13.53 148.767 12.718 148.571 12.004C148.389 11.29 148.095 10.688 147.689 10.198C147.297 9.694 146.786 9.316 146.156 9.064C145.526 8.798 144.777 8.665 143.909 8.665H140.591V20.32H143.51ZM162.575 18.955C162.393 20.005 161.924 20.831 161.168 21.433C160.426 22.035 159.355 22.336 157.955 22.336C156.303 22.336 155.036 21.839 154.154 20.845C153.272 19.837 152.831 18.437 152.831 16.645C152.831 15.707 152.957 14.874 153.209 14.146C153.461 13.418 153.811 12.809 154.259 12.319C154.721 11.829 155.267 11.458 155.897 11.206C156.527 10.94 157.213 10.807 157.955 10.807C158.795 10.807 159.516 10.94 160.118 11.206C160.72 11.472 161.21 11.843 161.588 12.319C161.98 12.781 162.267 13.334 162.449 13.978C162.645 14.622 162.743 15.329 162.743 16.099V17.023H154.679C154.679 17.569 154.749 18.08 154.889 18.556C155.043 19.018 155.253 19.424 155.519 19.774C155.799 20.11 156.142 20.376 156.548 20.572C156.954 20.768 157.423 20.866 157.955 20.866C158.865 20.866 159.53 20.698 159.95 20.362C160.37 20.012 160.657 19.543 160.811 18.955H162.575ZM160.916 15.658C160.916 15.14 160.86 14.671 160.748 14.251C160.636 13.831 160.461 13.474 160.223 13.18C159.985 12.872 159.677 12.634 159.299 12.466C158.921 12.298 158.466 12.214 157.934 12.214C156.968 12.214 156.212 12.508 155.666 13.096C155.134 13.684 154.819 14.538 154.721 15.658H160.916ZM163.387 11.143H165.508L168.742 19.963L172.039 11.143H174.055L169.687 22H167.734L163.387 11.143ZM184.365 18.955C184.183 20.005 183.714 20.831 182.958 21.433C182.216 22.035 181.145 22.336 179.745 22.336C178.093 22.336 176.826 21.839 175.944 20.845C175.062 19.837 174.621 18.437 174.621 16.645C174.621 15.707 174.747 14.874 174.999 14.146C175.251 13.418 175.601 12.809 176.049 12.319C176.511 11.829 177.057 11.458 177.687 11.206C178.317 10.94 179.003 10.807 179.745 10.807C180.585 10.807 181.306 10.94 181.908 11.206C182.51 11.472 183 11.843 183.378 12.319C183.77 12.781 184.057 13.334 184.239 13.978C184.435 14.622 184.533 15.329 184.533 16.099V17.023H176.469C176.469 17.569 176.539 18.08 176.679 18.556C176.833 19.018 177.043 19.424 177.309 19.774C177.589 20.11 177.932 20.376 178.338 20.572C178.744 20.768 179.213 20.866 179.745 20.866C180.655 20.866 181.32 20.698 181.74 20.362C182.16 20.012 182.447 19.543 182.601 18.955H184.365ZM182.706 15.658C182.706 15.14 182.65 14.671 182.538 14.251C182.426 13.831 182.251 13.474 182.013 13.18C181.775 12.872 181.467 12.634 181.089 12.466C180.711 12.298 180.256 12.214 179.724 12.214C178.758 12.214 178.002 12.508 177.456 13.096C176.924 13.684 176.609 14.538 176.511 15.658H182.706ZM186.787 7.006H188.614V22H186.787V7.006ZM196.124 22.336C195.298 22.336 194.563 22.203 193.919 21.937C193.275 21.671 192.729 21.293 192.281 20.803C191.833 20.313 191.49 19.711 191.252 18.997C191.014 18.283 190.895 17.485 190.895 16.603C190.895 15.721 191.021 14.923 191.273 14.209C191.525 13.495 191.882 12.886 192.344 12.382C192.806 11.878 193.359 11.493 194.003 11.227C194.661 10.947 195.389 10.807 196.187 10.807C196.999 10.807 197.727 10.94 198.371 11.206C199.015 11.472 199.561 11.857 200.009 12.361C200.471 12.851 200.821 13.446 201.059 14.146C201.297 14.846 201.416 15.637 201.416 16.519C201.416 17.415 201.29 18.22 201.038 18.934C200.8 19.648 200.45 20.257 199.988 20.761C199.54 21.265 198.987 21.657 198.329 21.937C197.671 22.203 196.936 22.336 196.124 22.336ZM196.145 20.824C196.733 20.824 197.237 20.719 197.657 20.509C198.077 20.299 198.42 20.005 198.686 19.627C198.966 19.249 199.169 18.801 199.295 18.283C199.421 17.751 199.484 17.17 199.484 16.54C199.484 15.924 199.421 15.357 199.295 14.839C199.169 14.321 198.966 13.88 198.686 13.516C198.42 13.138 198.077 12.844 197.657 12.634C197.237 12.424 196.733 12.319 196.145 12.319C195.557 12.319 195.053 12.424 194.633 12.634C194.227 12.844 193.884 13.138 193.604 13.516C193.338 13.88 193.142 14.321 193.016 14.839C192.89 15.357 192.827 15.931 192.827 16.561C192.827 17.191 192.89 17.765 193.016 18.283C193.142 18.801 193.338 19.249 193.604 19.627C193.87 20.005 194.213 20.299 194.633 20.509C195.053 20.719 195.557 20.824 196.145 20.824ZM203.654 11.143H205.46V12.697C205.908 12.081 206.426 11.612 207.014 11.29C207.616 10.968 208.316 10.807 209.114 10.807C209.884 10.807 210.556 10.947 211.13 11.227C211.718 11.507 212.201 11.899 212.579 12.403C212.971 12.907 213.258 13.509 213.44 14.209C213.636 14.895 213.734 15.658 213.734 16.498C213.734 17.394 213.622 18.206 213.398 18.934C213.174 19.648 212.852 20.257 212.432 20.761C212.012 21.265 211.501 21.657 210.899 21.937C210.311 22.203 209.646 22.336 208.904 22.336C208.288 22.336 207.679 22.217 207.077 21.979C206.489 21.727 205.957 21.286 205.481 20.656V26.074H203.654V11.143ZM205.46 16.876C205.46 17.576 205.537 18.178 205.691 18.682C205.859 19.172 206.083 19.578 206.363 19.9C206.643 20.222 206.979 20.46 207.371 20.614C207.763 20.754 208.19 20.824 208.652 20.824C209.1 20.824 209.513 20.747 209.891 20.593C210.283 20.439 210.619 20.194 210.899 19.858C211.179 19.508 211.396 19.06 211.55 18.514C211.718 17.968 211.802 17.303 211.802 16.519C211.802 15.721 211.711 15.056 211.529 14.524C211.361 13.978 211.137 13.544 210.857 13.222C210.577 12.9 210.255 12.669 209.891 12.529C209.541 12.389 209.177 12.319 208.799 12.319C208.323 12.319 207.882 12.403 207.476 12.571C207.07 12.725 206.713 12.963 206.405 13.285C206.111 13.593 205.88 13.992 205.712 14.482C205.544 14.958 205.46 15.511 205.46 16.141V16.876ZM225.361 18.955C225.179 20.005 224.71 20.831 223.954 21.433C223.212 22.035 222.141 22.336 220.741 22.336C219.089 22.336 217.822 21.839 216.94 20.845C216.058 19.837 215.617 18.437 215.617 16.645C215.617 15.707 215.743 14.874 215.995 14.146C216.247 13.418 216.597 12.809 217.045 12.319C217.507 11.829 218.053 11.458 218.683 11.206C219.313 10.94 219.999 10.807 220.741 10.807C221.581 10.807 222.302 10.94 222.904 11.206C223.506 11.472 223.996 11.843 224.374 12.319C224.766 12.781 225.053 13.334 225.235 13.978C225.431 14.622 225.529 15.329 225.529 16.099V17.023H217.465C217.465 17.569 217.535 18.08 217.675 18.556C217.829 19.018 218.039 19.424 218.305 19.774C218.585 20.11 218.928 20.376 219.334 20.572C219.74 20.768 220.209 20.866 220.741 20.866C221.651 20.866 222.316 20.698 222.736 20.362C223.156 20.012 223.443 19.543 223.597 18.955H225.361ZM223.702 15.658C223.702 15.14 223.646 14.671 223.534 14.251C223.422 13.831 223.247 13.474 223.009 13.18C222.771 12.872 222.463 12.634 222.085 12.466C221.707 12.298 221.252 12.214 220.72 12.214C219.754 12.214 218.998 12.508 218.452 13.096C217.92 13.684 217.605 14.538 217.507 15.658H223.702ZM227.741 11.143H229.547V12.823C229.953 12.221 230.429 11.759 230.975 11.437C231.521 11.115 232.102 10.954 232.718 10.954C233.096 10.954 233.418 10.982 233.684 11.038L233.453 12.739C233.313 12.711 233.173 12.69 233.033 12.676C232.893 12.648 232.739 12.634 232.571 12.634C232.235 12.634 231.892 12.697 231.542 12.823C231.192 12.935 230.863 13.131 230.555 13.411C230.247 13.677 230.002 13.985 229.82 14.335C229.652 14.685 229.568 15.091 229.568 15.553V22H227.741V11.143ZM252.224 17.065C252.14 17.821 251.951 18.528 251.657 19.186C251.363 19.83 250.964 20.39 250.46 20.866C249.956 21.342 249.34 21.713 248.612 21.979C247.898 22.245 247.065 22.378 246.113 22.378C245.077 22.378 244.146 22.203 243.32 21.853C242.494 21.503 241.794 20.992 241.22 20.32C240.646 19.648 240.198 18.829 239.876 17.863C239.568 16.883 239.414 15.77 239.414 14.524C239.414 13.264 239.582 12.144 239.918 11.164C240.254 10.184 240.723 9.358 241.325 8.686C241.927 8.014 242.634 7.503 243.446 7.153C244.272 6.803 245.161 6.628 246.113 6.628C247.037 6.628 247.835 6.747 248.507 6.985C249.179 7.223 249.746 7.559 250.208 7.993C250.684 8.427 251.062 8.945 251.342 9.547C251.636 10.149 251.86 10.814 252.014 11.542L250.124 11.857C249.998 11.311 249.83 10.821 249.62 10.387C249.424 9.939 249.165 9.561 248.843 9.253C248.535 8.945 248.157 8.714 247.709 8.56C247.275 8.392 246.743 8.308 246.113 8.308C245.371 8.308 244.706 8.462 244.118 8.77C243.544 9.064 243.054 9.484 242.648 10.03C242.256 10.562 241.955 11.213 241.745 11.983C241.535 12.739 241.43 13.579 241.43 14.503C241.43 15.427 241.535 16.274 241.745 17.044C241.955 17.8 242.256 18.451 242.648 18.997C243.054 19.543 243.544 19.963 244.118 20.257C244.706 20.551 245.378 20.698 246.134 20.698C246.82 20.698 247.401 20.614 247.877 20.446C248.367 20.264 248.766 20.012 249.074 19.69C249.396 19.368 249.648 18.983 249.83 18.535C250.012 18.087 250.145 17.597 250.229 17.065H252.224ZM254.428 7.006H256.255V22H254.428V7.006ZM263.765 22.336C262.939 22.336 262.204 22.203 261.56 21.937C260.916 21.671 260.37 21.293 259.922 20.803C259.474 20.313 259.131 19.711 258.893 18.997C258.655 18.283 258.536 17.485 258.536 16.603C258.536 15.721 258.662 14.923 258.914 14.209C259.166 13.495 259.523 12.886 259.985 12.382C260.447 11.878 261 11.493 261.644 11.227C262.302 10.947 263.03 10.807 263.828 10.807C264.64 10.807 265.368 10.94 266.012 11.206C266.656 11.472 267.202 11.857 267.65 12.361C268.112 12.851 268.462 13.446 268.7 14.146C268.938 14.846 269.057 15.637 269.057 16.519C269.057 17.415 268.931 18.22 268.679 18.934C268.441 19.648 268.091 20.257 267.629 20.761C267.181 21.265 266.628 21.657 265.97 21.937C265.312 22.203 264.577 22.336 263.765 22.336ZM263.786 20.824C264.374 20.824 264.878 20.719 265.298 20.509C265.718 20.299 266.061 20.005 266.327 19.627C266.607 19.249 266.81 18.801 266.936 18.283C267.062 17.751 267.125 17.17 267.125 16.54C267.125 15.924 267.062 15.357 266.936 14.839C266.81 14.321 266.607 13.88 266.327 13.516C266.061 13.138 265.718 12.844 265.298 12.634C264.878 12.424 264.374 12.319 263.786 12.319C263.198 12.319 262.694 12.424 262.274 12.634C261.868 12.844 261.525 13.138 261.245 13.516C260.979 13.88 260.783 14.321 260.657 14.839C260.531 15.357 260.468 15.931 260.468 16.561C260.468 17.191 260.531 17.765 260.657 18.283C260.783 18.801 260.979 19.249 261.245 19.627C261.511 20.005 261.854 20.299 262.274 20.509C262.694 20.719 263.198 20.824 263.786 20.824ZM271.232 11.143H273.059V17.989C273.059 18.997 273.22 19.711 273.542 20.131C273.878 20.551 274.417 20.761 275.159 20.761C275.971 20.761 276.706 20.467 277.364 19.879C277.714 19.571 277.98 19.249 278.162 18.913C278.344 18.563 278.435 18.115 278.435 17.569V11.143H280.262V22H278.456V20.32C277.924 21.02 277.35 21.531 276.734 21.853C276.118 22.175 275.453 22.336 274.739 22.336C273.507 22.336 272.611 22.007 272.051 21.349C271.505 20.677 271.232 19.676 271.232 18.346V11.143ZM290.753 20.446C290.305 21.048 289.787 21.517 289.199 21.853C288.611 22.175 287.918 22.336 287.12 22.336C286.322 22.336 285.629 22.189 285.041 21.895C284.467 21.601 283.991 21.202 283.613 20.698C283.235 20.18 282.955 19.571 282.773 18.871C282.591 18.171 282.5 17.422 282.5 16.624C282.5 15.728 282.612 14.923 282.836 14.209C283.06 13.481 283.375 12.865 283.781 12.361C284.201 11.857 284.705 11.472 285.293 11.206C285.895 10.94 286.574 10.807 287.33 10.807C287.904 10.807 288.485 10.926 289.073 11.164C289.661 11.388 290.207 11.822 290.711 12.466V7.006H292.538V22H290.753V20.446ZM290.774 16.246C290.774 15.378 290.676 14.706 290.48 14.23C290.298 13.74 289.99 13.327 289.556 12.991C289.248 12.739 288.933 12.564 288.611 12.466C288.303 12.368 287.96 12.319 287.582 12.319C287.134 12.319 286.714 12.396 286.322 12.55C285.944 12.704 285.608 12.956 285.314 13.306C285.034 13.642 284.81 14.083 284.642 14.629C284.488 15.161 284.411 15.812 284.411 16.582C284.411 17.38 284.495 18.052 284.663 18.598C284.845 19.144 285.076 19.578 285.356 19.9C285.65 20.222 285.972 20.453 286.322 20.593C286.686 20.733 287.057 20.803 287.435 20.803C287.841 20.803 288.205 20.754 288.527 20.656C288.849 20.558 289.171 20.39 289.493 20.152C289.913 19.816 290.228 19.396 290.438 18.892C290.662 18.388 290.774 17.751 290.774 16.981V16.246Z" fill="white"/>
<path d="M295.55 10.1074H295.004V7.45768H294V7H296.529V7.45768H295.542L295.55 10.1074ZM299.813 10.1074H299.275V8.18836V7.55403L299.123 8.07595L298.488 10.1074H297.999L297.372 8.07595L297.212 7.56206V8.18836V10.1074H296.69V7H297.429L298.232 9.45701L298.994 7H299.733L299.813 10.1074Z" fill="white"/>
<path d="M307.048 14.416H304.216V13.432H310.996V14.416H308.164V22H307.048V14.416ZM312.011 13.432H313.055V16.72C313.359 16.328 313.691 16.044 314.051 15.868C314.419 15.692 314.807 15.604 315.215 15.604C315.919 15.604 316.439 15.796 316.775 16.18C317.119 16.564 317.291 17.128 317.291 17.872V22H316.235V18.076C316.235 17.5 316.131 17.096 315.923 16.864C315.723 16.624 315.407 16.504 314.975 16.504C314.743 16.504 314.511 16.544 314.279 16.624C314.055 16.704 313.851 16.832 313.667 17.008C313.467 17.184 313.315 17.372 313.211 17.572C313.107 17.764 313.055 18.016 313.055 18.328V22H312.011V13.432ZM318.855 15.796H319.887V16.756C320.119 16.412 320.391 16.148 320.703 15.964C321.015 15.78 321.347 15.688 321.699 15.688C321.915 15.688 322.099 15.704 322.251 15.736L322.119 16.708C322.039 16.692 321.959 16.68 321.879 16.672C321.799 16.656 321.711 16.648 321.615 16.648C321.423 16.648 321.227 16.684 321.027 16.756C320.827 16.82 320.639 16.932 320.463 17.092C320.287 17.244 320.147 17.42 320.043 17.62C319.947 17.82 319.899 18.052 319.899 18.316V22H318.855V15.796ZM323.213 15.796H324.257V19.708C324.257 20.284 324.349 20.692 324.533 20.932C324.725 21.172 325.033 21.292 325.457 21.292C325.921 21.292 326.341 21.124 326.717 20.788C326.917 20.612 327.069 20.428 327.173 20.236C327.277 20.036 327.329 19.78 327.329 19.468V15.796H328.373V22H327.341V21.04C327.037 21.44 326.709 21.732 326.357 21.916C326.005 22.1 325.625 22.192 325.217 22.192C324.513 22.192 324.001 22.004 323.681 21.628C323.369 21.244 323.213 20.672 323.213 19.912V15.796ZM330.648 20.188C330.72 20.62 330.9 20.924 331.188 21.1C331.484 21.268 331.884 21.352 332.388 21.352C332.916 21.352 333.288 21.264 333.504 21.088C333.728 20.904 333.84 20.664 333.84 20.368C333.84 20.248 333.824 20.136 333.792 20.032C333.768 19.92 333.716 19.824 333.636 19.744C333.556 19.656 333.444 19.58 333.3 19.516C333.156 19.452 332.968 19.4 332.736 19.36L331.944 19.24C331.592 19.184 331.284 19.112 331.02 19.024C330.756 18.936 330.532 18.824 330.348 18.688C330.164 18.544 330.024 18.372 329.928 18.172C329.84 17.964 329.796 17.716 329.796 17.428C329.796 17.14 329.856 16.884 329.976 16.66C330.104 16.436 330.276 16.248 330.492 16.096C330.716 15.936 330.976 15.816 331.272 15.736C331.576 15.648 331.904 15.604 332.256 15.604C332.704 15.604 333.076 15.648 333.372 15.736C333.676 15.824 333.924 15.944 334.116 16.096C334.308 16.248 334.456 16.428 334.56 16.636C334.664 16.844 334.744 17.064 334.8 17.296L333.852 17.452C333.796 17.284 333.732 17.136 333.66 17.008C333.588 16.88 333.492 16.776 333.372 16.696C333.252 16.608 333.104 16.544 332.928 16.504C332.76 16.456 332.548 16.432 332.292 16.432C332.004 16.432 331.764 16.46 331.572 16.516C331.38 16.564 331.224 16.632 331.104 16.72C330.992 16.808 330.912 16.908 330.864 17.02C330.816 17.124 330.792 17.236 330.792 17.356C330.792 17.484 330.808 17.6 330.84 17.704C330.872 17.8 330.932 17.888 331.02 17.968C331.108 18.04 331.228 18.104 331.38 18.16C331.532 18.216 331.728 18.264 331.968 18.304L332.868 18.448C333.596 18.568 334.116 18.776 334.428 19.072C334.748 19.368 334.908 19.8 334.908 20.368C334.908 20.632 334.856 20.876 334.752 21.1C334.648 21.316 334.492 21.508 334.284 21.676C334.076 21.836 333.816 21.96 333.504 22.048C333.192 22.144 332.828 22.192 332.412 22.192C332.036 22.192 331.684 22.156 331.356 22.084C331.036 22.012 330.752 21.9 330.504 21.748C330.256 21.588 330.056 21.38 329.904 21.124C329.752 20.868 329.664 20.556 329.64 20.188H330.648ZM336.605 16.624H335.645V15.796H336.605V14.104H337.649V15.796H339.293V16.624H337.649V20.26C337.649 20.564 337.717 20.808 337.853 20.992C337.989 21.176 338.197 21.268 338.477 21.268C338.653 21.268 338.805 21.256 338.933 21.232C339.069 21.208 339.193 21.176 339.305 21.136L339.485 21.94C339.325 21.996 339.149 22.04 338.957 22.072C338.773 22.112 338.553 22.132 338.297 22.132C337.945 22.132 337.661 22.08 337.445 21.976C337.229 21.872 337.057 21.724 336.929 21.532C336.801 21.34 336.713 21.112 336.665 20.848C336.625 20.584 336.605 20.296 336.605 19.984V16.624ZM343.845 19.564C343.941 20.164 344.177 20.6 344.553 20.872C344.937 21.136 345.505 21.268 346.257 21.268C346.633 21.268 346.945 21.228 347.193 21.148C347.449 21.06 347.653 20.948 347.805 20.812C347.957 20.668 348.065 20.504 348.129 20.32C348.193 20.128 348.225 19.928 348.225 19.72C348.225 19.552 348.205 19.392 348.165 19.24C348.125 19.08 348.045 18.936 347.925 18.808C347.813 18.68 347.653 18.568 347.445 18.472C347.245 18.376 346.985 18.3 346.665 18.244L345.585 18.052C345.161 17.98 344.785 17.884 344.457 17.764C344.129 17.644 343.849 17.492 343.617 17.308C343.393 17.116 343.221 16.88 343.101 16.6C342.989 16.32 342.933 15.98 342.933 15.58C342.933 15.188 343.013 14.844 343.173 14.548C343.341 14.252 343.565 14.004 343.845 13.804C344.125 13.604 344.457 13.456 344.841 13.36C345.225 13.264 345.641 13.216 346.089 13.216C346.657 13.216 347.129 13.28 347.505 13.408C347.889 13.528 348.201 13.692 348.441 13.9C348.681 14.108 348.861 14.348 348.981 14.62C349.109 14.884 349.205 15.156 349.269 15.436L348.237 15.64C348.173 15.4 348.089 15.188 347.985 15.004C347.889 14.812 347.757 14.656 347.589 14.536C347.429 14.408 347.229 14.312 346.989 14.248C346.749 14.184 346.457 14.152 346.113 14.152C345.721 14.152 345.393 14.188 345.129 14.26C344.865 14.332 344.653 14.432 344.493 14.56C344.333 14.68 344.217 14.828 344.145 15.004C344.081 15.172 344.049 15.352 344.049 15.544C344.049 15.752 344.073 15.936 344.121 16.096C344.177 16.248 344.265 16.384 344.385 16.504C344.513 16.616 344.677 16.712 344.877 16.792C345.077 16.864 345.325 16.928 345.621 16.984L346.821 17.2C347.709 17.368 348.361 17.648 348.777 18.04C349.193 18.424 349.401 18.992 349.401 19.744C349.401 20.088 349.333 20.412 349.197 20.716C349.069 21.012 348.873 21.272 348.609 21.496C348.353 21.72 348.029 21.896 347.637 22.024C347.245 22.152 346.785 22.216 346.257 22.216C345.753 22.216 345.293 22.164 344.877 22.06C344.469 21.964 344.113 21.808 343.809 21.592C343.505 21.376 343.261 21.1 343.077 20.764C342.893 20.428 342.781 20.028 342.741 19.564H343.845ZM356.152 20.26C356.048 20.86 355.78 21.332 355.348 21.676C354.924 22.02 354.312 22.192 353.512 22.192C352.568 22.192 351.844 21.908 351.34 21.34C350.836 20.764 350.584 19.964 350.584 18.94C350.584 18.404 350.656 17.928 350.8 17.512C350.944 17.096 351.144 16.748 351.4 16.468C351.664 16.188 351.976 15.976 352.336 15.832C352.696 15.68 353.088 15.604 353.512 15.604C353.992 15.604 354.404 15.68 354.748 15.832C355.092 15.984 355.372 16.196 355.588 16.468C355.812 16.732 355.976 17.048 356.08 17.416C356.192 17.784 356.248 18.188 356.248 18.628V19.156H351.64C351.64 19.468 351.68 19.76 351.76 20.032C351.848 20.296 351.968 20.528 352.12 20.728C352.28 20.92 352.476 21.072 352.708 21.184C352.94 21.296 353.208 21.352 353.512 21.352C354.032 21.352 354.412 21.256 354.652 21.064C354.892 20.864 355.056 20.596 355.144 20.26H356.152ZM355.204 18.376C355.204 18.08 355.172 17.812 355.108 17.572C355.044 17.332 354.944 17.128 354.808 16.96C354.672 16.784 354.496 16.648 354.28 16.552C354.064 16.456 353.804 16.408 353.5 16.408C352.948 16.408 352.516 16.576 352.204 16.912C351.9 17.248 351.72 17.736 351.664 18.376H355.204ZM357.632 15.796H358.664V16.756C358.896 16.412 359.168 16.148 359.48 15.964C359.792 15.78 360.124 15.688 360.476 15.688C360.692 15.688 360.876 15.704 361.028 15.736L360.896 16.708C360.816 16.692 360.736 16.68 360.656 16.672C360.576 16.656 360.488 16.648 360.392 16.648C360.2 16.648 360.004 16.684 359.804 16.756C359.604 16.82 359.416 16.932 359.24 17.092C359.064 17.244 358.924 17.42 358.82 17.62C358.724 17.82 358.676 18.052 358.676 18.316V22H357.632V15.796ZM361.611 15.796H362.823L364.671 20.836L366.555 15.796H367.707L365.211 22H364.095L361.611 15.796ZM368.613 15.796H369.657V22H368.613V15.796ZM368.577 13.432H369.693V14.644H368.577V13.432ZM376.66 19.9C376.556 20.612 376.284 21.172 375.844 21.58C375.404 21.988 374.784 22.192 373.984 22.192C373.512 22.192 373.092 22.116 372.724 21.964C372.364 21.812 372.06 21.596 371.812 21.316C371.572 21.028 371.388 20.684 371.26 20.284C371.14 19.876 371.08 19.42 371.08 18.916C371.08 18.42 371.148 17.968 371.284 17.56C371.42 17.152 371.616 16.804 371.872 16.516C372.128 16.228 372.44 16.004 372.808 15.844C373.176 15.684 373.592 15.604 374.056 15.604C374.8 15.604 375.376 15.788 375.784 16.156C376.192 16.516 376.452 17.016 376.564 17.656L375.52 17.848C375.48 17.648 375.424 17.464 375.352 17.296C375.288 17.128 375.196 16.984 375.076 16.864C374.956 16.736 374.808 16.64 374.632 16.576C374.464 16.504 374.26 16.468 374.02 16.468C373.692 16.468 373.412 16.532 373.18 16.66C372.948 16.78 372.756 16.952 372.604 17.176C372.46 17.392 372.352 17.648 372.28 17.944C372.216 18.24 372.184 18.556 372.184 18.892C372.184 19.228 372.216 19.544 372.28 19.84C372.344 20.136 372.448 20.396 372.592 20.62C372.736 20.836 372.924 21.008 373.156 21.136C373.388 21.264 373.672 21.328 374.008 21.328C374.512 21.328 374.884 21.2 375.124 20.944C375.372 20.688 375.532 20.34 375.604 19.9H376.66ZM383.234 20.26C383.13 20.86 382.862 21.332 382.43 21.676C382.006 22.02 381.394 22.192 380.594 22.192C379.65 22.192 378.926 21.908 378.422 21.34C377.918 20.764 377.666 19.964 377.666 18.94C377.666 18.404 377.738 17.928 377.882 17.512C378.026 17.096 378.226 16.748 378.482 16.468C378.746 16.188 379.058 15.976 379.418 15.832C379.778 15.68 380.17 15.604 380.594 15.604C381.074 15.604 381.486 15.68 381.83 15.832C382.174 15.984 382.454 16.196 382.67 16.468C382.894 16.732 383.058 17.048 383.162 17.416C383.274 17.784 383.33 18.188 383.33 18.628V19.156H378.722C378.722 19.468 378.762 19.76 378.842 20.032C378.93 20.296 379.05 20.528 379.202 20.728C379.362 20.92 379.558 21.072 379.79 21.184C380.022 21.296 380.29 21.352 380.594 21.352C381.114 21.352 381.494 21.256 381.734 21.064C381.974 20.864 382.138 20.596 382.226 20.26H383.234ZM382.286 18.376C382.286 18.08 382.254 17.812 382.19 17.572C382.126 17.332 382.026 17.128 381.89 16.96C381.754 16.784 381.578 16.648 381.362 16.552C381.146 16.456 380.886 16.408 380.582 16.408C380.03 16.408 379.598 16.576 379.286 16.912C378.982 17.248 378.802 17.736 378.746 18.376H382.286ZM385.386 20.188C385.458 20.62 385.638 20.924 385.926 21.1C386.222 21.268 386.622 21.352 387.126 21.352C387.654 21.352 388.026 21.264 388.242 21.088C388.466 20.904 388.578 20.664 388.578 20.368C388.578 20.248 388.562 20.136 388.53 20.032C388.506 19.92 388.454 19.824 388.374 19.744C388.294 19.656 388.182 19.58 388.038 19.516C387.894 19.452 387.706 19.4 387.474 19.36L386.682 19.24C386.33 19.184 386.022 19.112 385.758 19.024C385.494 18.936 385.27 18.824 385.086 18.688C384.902 18.544 384.762 18.372 384.666 18.172C384.578 17.964 384.534 17.716 384.534 17.428C384.534 17.14 384.594 16.884 384.714 16.66C384.842 16.436 385.014 16.248 385.23 16.096C385.454 15.936 385.714 15.816 386.01 15.736C386.314 15.648 386.642 15.604 386.994 15.604C387.442 15.604 387.814 15.648 388.11 15.736C388.414 15.824 388.662 15.944 388.854 16.096C389.046 16.248 389.194 16.428 389.298 16.636C389.402 16.844 389.482 17.064 389.538 17.296L388.59 17.452C388.534 17.284 388.47 17.136 388.398 17.008C388.326 16.88 388.23 16.776 388.11 16.696C387.99 16.608 387.842 16.544 387.666 16.504C387.498 16.456 387.286 16.432 387.03 16.432C386.742 16.432 386.502 16.46 386.31 16.516C386.118 16.564 385.962 16.632 385.842 16.72C385.73 16.808 385.65 16.908 385.602 17.02C385.554 17.124 385.53 17.236 385.53 17.356C385.53 17.484 385.546 17.6 385.578 17.704C385.61 17.8 385.67 17.888 385.758 17.968C385.846 18.04 385.966 18.104 386.118 18.16C386.27 18.216 386.466 18.264 386.706 18.304L387.606 18.448C388.334 18.568 388.854 18.776 389.166 19.072C389.486 19.368 389.646 19.8 389.646 20.368C389.646 20.632 389.594 20.876 389.49 21.1C389.386 21.316 389.23 21.508 389.022 21.676C388.814 21.836 388.554 21.96 388.242 22.048C387.93 22.144 387.566 22.192 387.15 22.192C386.774 22.192 386.422 22.156 386.094 22.084C385.774 22.012 385.49 21.9 385.242 21.748C384.994 21.588 384.794 21.38 384.642 21.124C384.49 20.868 384.402 20.556 384.378 20.188H385.386Z" fill="white" fill-opacity="0.65"/>
<path d="M399.78 21.136C400.084 20.864 400.412 20.576 400.764 20.272C401.116 19.968 401.472 19.656 401.832 19.336C402.216 19 402.552 18.696 402.84 18.424C403.128 18.144 403.368 17.876 403.56 17.62C403.752 17.364 403.896 17.104 403.992 16.84C404.088 16.576 404.136 16.292 404.136 15.988C404.136 15.484 404 15.1 403.728 14.836C403.456 14.564 403.076 14.428 402.588 14.428C402.292 14.428 402.04 14.46 401.832 14.524C401.624 14.588 401.448 14.684 401.304 14.812C401.16 14.932 401.04 15.084 400.944 15.268C400.856 15.452 400.776 15.668 400.704 15.916L399.708 15.76C399.78 15.472 399.88 15.192 400.008 14.92C400.136 14.648 400.312 14.408 400.536 14.2C400.76 13.984 401.04 13.812 401.376 13.684C401.712 13.548 402.124 13.48 402.612 13.48C403.036 13.48 403.412 13.54 403.74 13.66C404.068 13.78 404.34 13.948 404.556 14.164C404.78 14.372 404.948 14.624 405.06 14.92C405.18 15.216 405.24 15.544 405.24 15.904C405.24 16.264 405.188 16.6 405.084 16.912C404.988 17.224 404.836 17.532 404.628 17.836C404.42 18.14 404.156 18.452 403.836 18.772C403.516 19.092 403.136 19.44 402.696 19.816C402.464 20.016 402.224 20.22 401.976 20.428C401.736 20.628 401.5 20.832 401.268 21.04H405.324L405.168 22H399.78V21.136ZM406.57 19.156L410.518 13.708H411.538V19.084H412.678L412.534 19.936H411.538V22H410.53V19.936H406.57V19.156ZM410.53 19.084V15.088L407.662 19.084H410.53ZM413.947 20.596H415.147V22H413.947V20.596ZM416.355 19.156L420.303 13.708H421.323V19.084H422.463L422.319 19.936H421.323V22H420.315V19.936H416.355V19.156ZM420.315 19.084V15.088L417.447 19.084H420.315Z" fill="white"/>
</svg>
