<svg width="80" height="80" viewBox="0 0 80 80" fill="none" xmlns="http://www.w3.org/2000/svg">
<path d="M40 1.5C47.6146 1.5 55.0582 3.75798 61.3895 7.98842C67.7208 12.2189 72.6554 18.2317 75.5694 25.2667C78.4833 32.3016 79.2458 40.0427 77.7602 47.511C76.2747 54.9792 72.6079 61.8393 67.2236 67.2236C61.8393 72.6079 54.9793 76.2747 47.511 77.7602C40.0427 79.2458 32.3017 78.4833 25.2667 75.5693C18.2317 72.6554 12.2189 67.7207 7.98844 61.3894C3.758 55.0582 1.50002 47.6146 1.50002 40C1.51166 29.7927 5.57164 20.0069 12.7893 12.7892C20.0069 5.57162 29.7928 1.51165 40 1.5ZM40 0C32.0888 0 24.3552 2.34596 17.7772 6.74121C11.1992 11.1365 6.07234 17.3836 3.04484 24.6927C0.0173311 32.0017 -0.774802 40.0444 0.768607 47.8036C2.31202 55.5628 6.12165 62.6902 11.7157 68.2843C17.3098 73.8784 24.4372 77.688 32.1964 79.2314C39.9556 80.7748 47.9983 79.9827 55.3073 76.9552C62.6164 73.9277 68.8635 68.8008 73.2588 62.2228C77.654 55.6448 80 47.9112 80 40C80 29.3913 75.7857 19.2172 68.2843 11.7157C60.7828 4.21427 50.6087 0 40 0V0Z" fill="white"/>
<path d="M54.7933 48.1608C51.9946 45.7493 49.3958 42.3331 49.1958 33.6919C49.2481 31.5284 48.5628 29.4121 47.2537 27.6941C45.9447 25.9761 44.0905 24.7597 41.9991 24.2469C40.6512 23.9255 39.248 23.9178 37.8966 24.2244C36.5453 24.5311 35.2815 25.1439 34.2016 26.0163C33.1217 26.8886 32.2543 27.9973 31.6655 29.2579C31.0767 30.5184 30.7821 31.8975 30.8042 33.29C30.8042 42.1321 28.2053 45.5484 25.2067 48.1608C24.8004 48.5016 24.48 48.9341 24.2716 49.423C24.0631 49.912 23.9725 50.4435 24.0072 50.9742C24.0241 51.2351 24.1349 51.481 24.3188 51.6658C24.5027 51.8507 24.7472 51.962 25.0068 51.979H35.0023C35.2286 53.1346 35.8547 54.1722 36.7695 54.9079C37.6844 55.6436 38.8289 56.0299 40 55.9982C41.1616 55.9919 42.287 55.5916 43.194 54.8621C44.1011 54.1327 44.7366 53.1168 44.9977 51.979H54.9932C55.1266 51.9873 55.2602 51.9669 55.3852 51.9193C55.5102 51.8717 55.6237 51.798 55.7182 51.703C55.8127 51.608 55.886 51.4939 55.9334 51.3683C55.9807 51.2426 56.001 51.1083 55.9928 50.9742C56.0275 50.4435 55.9369 49.912 55.7284 49.423C55.52 48.9341 55.1996 48.5016 54.7933 48.1608ZM40 53.9886C39.3784 54.0104 38.7671 53.8252 38.261 53.4618C37.7549 53.0984 37.3824 52.5772 37.2013 51.979H42.9986C42.7492 52.5722 42.3322 53.0788 41.7992 53.436C41.2662 53.7932 40.6406 53.9853 40 53.9886Z" fill="white"/>
</svg>
