<svg width="228" height="13" viewBox="0 0 228 13" fill="none" xmlns="http://www.w3.org/2000/svg">
<path d="M0.135887 0.717999H3.24289C3.92755 0.717999 4.49089 0.791666 4.93289 0.939C5.38355 1.08633 5.73455 1.28567 5.98589 1.537C6.24589 1.78833 6.42355 2.083 6.51889 2.421C6.62289 2.75033 6.67489 3.10133 6.67489 3.474C6.67489 3.864 6.62289 4.23667 6.51889 4.592C6.41489 4.94733 6.23289 5.25933 5.97289 5.528C5.71289 5.79667 5.36189 6.009 4.91989 6.165C4.47789 6.321 3.91889 6.399 3.24289 6.399H1.31889V10H0.135887V0.717999ZM3.22989 5.385C3.68055 5.385 4.05322 5.34167 4.34789 5.255C4.64255 5.16833 4.87222 5.04267 5.03689 4.878C5.20155 4.71333 5.31422 4.51833 5.37489 4.293C5.44422 4.059 5.47889 3.799 5.47889 3.513C5.47889 3.21833 5.44422 2.95833 5.37489 2.733C5.30555 2.50767 5.18422 2.32133 5.01089 2.174C4.83755 2.02667 4.60355 1.91833 4.30889 1.849C4.02289 1.771 3.65889 1.732 3.21689 1.732H1.31889V5.385H3.22989ZM10.6766 10.208C10.1652 10.208 9.71022 10.1257 9.31155 9.961C8.91288 9.79633 8.57488 9.56233 8.29755 9.259C8.02022 8.95567 7.80788 8.583 7.66055 8.141C7.51322 7.699 7.43955 7.205 7.43955 6.659C7.43955 6.113 7.51755 5.619 7.67355 5.177C7.82955 4.735 8.05055 4.358 8.33655 4.046C8.62255 3.734 8.96488 3.49567 9.36355 3.331C9.77088 3.15767 10.2216 3.071 10.7156 3.071C11.2182 3.071 11.6689 3.15333 12.0676 3.318C12.4662 3.48267 12.8042 3.721 13.0816 4.033C13.3676 4.33633 13.5842 4.70467 13.7316 5.138C13.8789 5.57133 13.9526 6.061 13.9526 6.607C13.9526 7.16167 13.8746 7.66 13.7186 8.102C13.5712 8.544 13.3546 8.921 13.0686 9.233C12.7912 9.545 12.4489 9.78767 12.0416 9.961C11.6342 10.1257 11.1792 10.208 10.6766 10.208ZM10.6896 9.272C11.0536 9.272 11.3656 9.207 11.6256 9.077C11.8856 8.947 12.0979 8.765 12.2626 8.531C12.4359 8.297 12.5616 8.01967 12.6396 7.699C12.7176 7.36967 12.7566 7.01 12.7566 6.62C12.7566 6.23867 12.7176 5.88767 12.6396 5.567C12.5616 5.24633 12.4359 4.97333 12.2626 4.748C12.0979 4.514 11.8856 4.332 11.6256 4.202C11.3656 4.072 11.0536 4.007 10.6896 4.007C10.3256 4.007 10.0136 4.072 9.75355 4.202C9.50222 4.332 9.28988 4.514 9.11655 4.748C8.95188 4.97333 8.83055 5.24633 8.75255 5.567C8.67455 5.88767 8.63555 6.243 8.63555 6.633C8.63555 7.023 8.67455 7.37833 8.75255 7.699C8.83055 8.01967 8.95188 8.297 9.11655 8.531C9.28122 8.765 9.49355 8.947 9.75355 9.077C10.0136 9.207 10.3256 9.272 10.6896 9.272ZM14.5107 3.279H15.7457L17.0977 8.635L18.6447 3.318H19.7887L21.2967 8.635L22.6357 3.279H23.8317L21.8687 10H20.6727L19.1647 4.644L17.6437 10H16.4607L14.5107 3.279ZM30.4325 8.115C30.3198 8.765 30.0295 9.27633 29.5615 9.649C29.1022 10.0217 28.4392 10.208 27.5725 10.208C26.5498 10.208 25.7655 9.90033 25.2195 9.285C24.6735 8.661 24.4005 7.79433 24.4005 6.685C24.4005 6.10433 24.4785 5.58867 24.6345 5.138C24.7905 4.68733 25.0072 4.31033 25.2845 4.007C25.5705 3.70367 25.9085 3.474 26.2985 3.318C26.6885 3.15333 27.1132 3.071 27.5725 3.071C28.0925 3.071 28.5388 3.15333 28.9115 3.318C29.2842 3.48267 29.5875 3.71233 29.8215 4.007C30.0642 4.293 30.2418 4.63533 30.3545 5.034C30.4758 5.43267 30.5365 5.87033 30.5365 6.347V6.919H25.5445C25.5445 7.257 25.5878 7.57333 25.6745 7.868C25.7698 8.154 25.8998 8.40533 26.0645 8.622C26.2378 8.83 26.4502 8.99467 26.7015 9.116C26.9528 9.23733 27.2432 9.298 27.5725 9.298C28.1358 9.298 28.5475 9.194 28.8075 8.986C29.0675 8.76933 29.2452 8.479 29.3405 8.115H30.4325ZM29.4055 6.074C29.4055 5.75333 29.3708 5.463 29.3015 5.203C29.2322 4.943 29.1238 4.722 28.9765 4.54C28.8292 4.34933 28.6385 4.202 28.4045 4.098C28.1705 3.994 27.8888 3.942 27.5595 3.942C26.9615 3.942 26.4935 4.124 26.1555 4.488C25.8262 4.852 25.6312 5.38067 25.5705 6.074H29.4055ZM32.0356 3.279H33.1536V4.319C33.4049 3.94633 33.6996 3.66033 34.0376 3.461C34.3756 3.26167 34.7352 3.162 35.1166 3.162C35.3506 3.162 35.5499 3.17933 35.7146 3.214L35.5716 4.267C35.4849 4.24967 35.3982 4.23667 35.3116 4.228C35.2249 4.21067 35.1296 4.202 35.0256 4.202C34.8176 4.202 34.6052 4.241 34.3886 4.319C34.1719 4.38833 33.9682 4.50967 33.7776 4.683C33.5869 4.84767 33.4352 5.03833 33.3226 5.255C33.2186 5.47167 33.1666 5.723 33.1666 6.009V10H32.0356V3.279ZM42.2137 8.115C42.1011 8.765 41.8107 9.27633 41.3427 9.649C40.8834 10.0217 40.2204 10.208 39.3537 10.208C38.3311 10.208 37.5467 9.90033 37.0007 9.285C36.4547 8.661 36.1817 7.79433 36.1817 6.685C36.1817 6.10433 36.2597 5.58867 36.4157 5.138C36.5717 4.68733 36.7884 4.31033 37.0657 4.007C37.3517 3.70367 37.6897 3.474 38.0797 3.318C38.4697 3.15333 38.8944 3.071 39.3537 3.071C39.8737 3.071 40.3201 3.15333 40.6927 3.318C41.0654 3.48267 41.3687 3.71233 41.6027 4.007C41.8454 4.293 42.0231 4.63533 42.1357 5.034C42.2571 5.43267 42.3177 5.87033 42.3177 6.347V6.919H37.3257C37.3257 7.257 37.3691 7.57333 37.4557 7.868C37.5511 8.154 37.6811 8.40533 37.8457 8.622C38.0191 8.83 38.2314 8.99467 38.4827 9.116C38.7341 9.23733 39.0244 9.298 39.3537 9.298C39.9171 9.298 40.3287 9.194 40.5887 8.986C40.8487 8.76933 41.0264 8.479 41.1217 8.115H42.2137ZM41.1867 6.074C41.1867 5.75333 41.1521 5.463 41.0827 5.203C41.0134 4.943 40.9051 4.722 40.7577 4.54C40.6104 4.34933 40.4197 4.202 40.1857 4.098C39.9517 3.994 39.6701 3.942 39.3407 3.942C38.7427 3.942 38.2747 4.124 37.9367 4.488C37.6074 4.852 37.4124 5.38067 37.3517 6.074H41.1867ZM48.7048 9.038C48.4275 9.41067 48.1068 9.701 47.7428 9.909C47.3788 10.1083 46.9498 10.208 46.4558 10.208C45.9618 10.208 45.5328 10.117 45.1688 9.935C44.8135 9.753 44.5188 9.506 44.2848 9.194C44.0508 8.87333 43.8775 8.49633 43.7648 8.063C43.6521 7.62967 43.5958 7.166 43.5958 6.672C43.5958 6.11733 43.6651 5.619 43.8038 5.177C43.9425 4.72633 44.1375 4.345 44.3888 4.033C44.6488 3.721 44.9608 3.48267 45.3248 3.318C45.6975 3.15333 46.1178 3.071 46.5858 3.071C46.9411 3.071 47.3008 3.14467 47.6648 3.292C48.0288 3.43067 48.3668 3.69933 48.6788 4.098V0.717999H49.8098V10H48.7048V9.038ZM48.7178 6.438C48.7178 5.90067 48.6571 5.48467 48.5358 5.19C48.4231 4.88667 48.2325 4.631 47.9638 4.423C47.7731 4.267 47.5781 4.15867 47.3788 4.098C47.1881 4.03733 46.9758 4.007 46.7418 4.007C46.4645 4.007 46.2045 4.05467 45.9618 4.15C45.7278 4.24533 45.5198 4.40133 45.3378 4.618C45.1645 4.826 45.0258 5.099 44.9218 5.437C44.8265 5.76633 44.7788 6.16933 44.7788 6.646C44.7788 7.14 44.8308 7.556 44.9348 7.894C45.0475 8.232 45.1905 8.50067 45.3638 8.7C45.5458 8.89933 45.7451 9.04233 45.9618 9.129C46.1871 9.21567 46.4168 9.259 46.6508 9.259C46.9021 9.259 47.1275 9.22867 47.3268 9.168C47.5261 9.10733 47.7255 9.00333 47.9248 8.856C48.1848 8.648 48.3798 8.388 48.5098 8.076C48.6485 7.764 48.7178 7.36967 48.7178 6.893V6.438ZM54.4555 0.717999H55.5865V4.215C55.8638 3.851 56.1845 3.56933 56.5485 3.37C56.9125 3.17067 57.3415 3.071 57.8355 3.071C58.3121 3.071 58.7281 3.15767 59.0835 3.331C59.4475 3.50433 59.7465 3.747 59.9805 4.059C60.2231 4.371 60.4008 4.74367 60.5135 5.177C60.6348 5.60167 60.6955 6.074 60.6955 6.594C60.6955 7.14867 60.6261 7.65133 60.4875 8.102C60.3488 8.544 60.1495 8.921 59.8895 9.233C59.6295 9.545 59.3131 9.78767 58.9405 9.961C58.5765 10.1257 58.1648 10.208 57.7055 10.208C57.3155 10.208 56.9341 10.13 56.5615 9.974C56.1975 9.80933 55.8681 9.532 55.5735 9.142V10H54.4555V0.717999ZM55.5735 6.828C55.5735 7.26133 55.6211 7.634 55.7165 7.946C55.8205 8.24933 55.9591 8.50067 56.1325 8.7C56.3058 8.89933 56.5138 9.04667 56.7565 9.142C56.9991 9.22867 57.2635 9.272 57.5495 9.272C57.8268 9.272 58.0825 9.22433 58.3165 9.129C58.5591 9.03367 58.7671 8.882 58.9405 8.674C59.1138 8.45733 59.2481 8.18 59.3435 7.842C59.4475 7.504 59.4995 7.09233 59.4995 6.607C59.4995 6.113 59.4431 5.70133 59.3305 5.372C59.2265 5.034 59.0878 4.76533 58.9145 4.566C58.7411 4.36667 58.5418 4.22367 58.3165 4.137C58.0998 4.05033 57.8745 4.007 57.6405 4.007C57.3458 4.007 57.0728 4.059 56.8215 4.163C56.5701 4.25833 56.3491 4.40567 56.1585 4.605C55.9765 4.79567 55.8335 5.04267 55.7295 5.346C55.6255 5.64067 55.5735 5.983 55.5735 6.373V6.828ZM61.9324 11.43C62.1751 11.5167 62.4177 11.56 62.6604 11.56C62.9377 11.56 63.1501 11.4863 63.2974 11.339C63.4534 11.2003 63.6051 10.936 63.7524 10.546L64.0254 9.831L61.1784 3.279H62.4914L64.6104 8.557L66.5474 3.279H67.7954L64.8574 10.637C64.7361 10.9403 64.6147 11.2047 64.4934 11.43C64.3721 11.664 64.2377 11.8633 64.0904 12.028C63.9431 12.1927 63.7654 12.314 63.5574 12.392C63.3581 12.4787 63.1111 12.522 62.8164 12.522C62.6084 12.522 62.4221 12.509 62.2574 12.483C62.0927 12.457 61.9107 12.4093 61.7114 12.34L61.9324 11.43ZM75.7656 10.234C75.133 10.234 74.5523 10.13 74.0236 9.922C73.5036 9.70533 73.053 9.39333 72.6716 8.986C72.299 8.57 72.0086 8.05867 71.8006 7.452C71.5926 6.84533 71.4886 6.152 71.4886 5.372C71.4886 4.592 71.5926 3.89867 71.8006 3.292C72.0173 2.68533 72.312 2.174 72.6846 1.758C73.066 1.342 73.5166 1.02567 74.0366 0.809C74.5653 0.592333 75.1416 0.483999 75.7656 0.483999C76.3983 0.483999 76.9746 0.592333 77.4946 0.809C78.0233 1.017 78.474 1.329 78.8466 1.745C79.2193 2.15233 79.5096 2.65933 79.7176 3.266C79.9256 3.864 80.0296 4.553 80.0296 5.333C80.0296 6.113 79.9256 6.81067 79.7176 7.426C79.5183 8.03267 79.2323 8.544 78.8596 8.96C78.487 9.376 78.0363 9.69233 77.5076 9.909C76.9876 10.1257 76.407 10.234 75.7656 10.234ZM75.7656 9.194C76.2596 9.194 76.693 9.103 77.0656 8.921C77.447 8.739 77.7633 8.48333 78.0146 8.154C78.266 7.816 78.4566 7.413 78.5866 6.945C78.7166 6.46833 78.7816 5.93967 78.7816 5.359C78.7816 4.787 78.7166 4.267 78.5866 3.799C78.4566 3.32233 78.2616 2.915 78.0016 2.577C77.7503 2.239 77.4383 1.979 77.0656 1.797C76.693 1.615 76.2596 1.524 75.7656 1.524C75.263 1.524 74.821 1.615 74.4396 1.797C74.067 1.979 73.7506 2.239 73.4906 2.577C73.2393 2.915 73.0486 3.32233 72.9186 3.799C72.7973 4.267 72.7366 4.787 72.7366 5.359C72.7366 5.93967 72.7973 6.46833 72.9186 6.945C73.0486 7.413 73.2393 7.816 73.4906 8.154C73.742 8.48333 74.054 8.739 74.4266 8.921C74.808 9.103 75.2543 9.194 75.7656 9.194ZM81.5981 3.279H82.7161V4.241C82.9934 3.85967 83.3141 3.56933 83.6781 3.37C84.0507 3.17067 84.4841 3.071 84.9781 3.071C85.4547 3.071 85.8707 3.15767 86.2261 3.331C86.5901 3.50433 86.8891 3.747 87.1231 4.059C87.3657 4.371 87.5434 4.74367 87.6561 5.177C87.7774 5.60167 87.8381 6.074 87.8381 6.594C87.8381 7.14867 87.7687 7.65133 87.6301 8.102C87.4914 8.544 87.2921 8.921 87.0321 9.233C86.7721 9.545 86.4557 9.78767 86.0831 9.961C85.7191 10.1257 85.3074 10.208 84.8481 10.208C84.4667 10.208 84.0897 10.1343 83.7171 9.987C83.3531 9.831 83.0237 9.558 82.7291 9.168V12.522H81.5981V3.279ZM82.7161 6.828C82.7161 7.26133 82.7637 7.634 82.8591 7.946C82.9631 8.24933 83.1017 8.50067 83.2751 8.7C83.4484 8.89933 83.6564 9.04667 83.8991 9.142C84.1417 9.22867 84.4061 9.272 84.6921 9.272C84.9694 9.272 85.2251 9.22433 85.4591 9.129C85.7017 9.03367 85.9097 8.882 86.0831 8.674C86.2564 8.45733 86.3907 8.18 86.4861 7.842C86.5901 7.504 86.6421 7.09233 86.6421 6.607C86.6421 6.113 86.5857 5.70133 86.4731 5.372C86.3691 5.034 86.2304 4.76533 86.0571 4.566C85.8837 4.36667 85.6844 4.22367 85.4591 4.137C85.2424 4.05033 85.0171 4.007 84.7831 4.007C84.4884 4.007 84.2154 4.059 83.9641 4.163C83.7127 4.25833 83.4917 4.40567 83.3011 4.605C83.1191 4.79567 82.9761 5.04267 82.8721 5.346C82.7681 5.64067 82.7161 5.983 82.7161 6.373V6.828ZM95.1659 8.115C95.0532 8.765 94.7629 9.27633 94.2949 9.649C93.8356 10.0217 93.1726 10.208 92.3059 10.208C91.2832 10.208 90.4989 9.90033 89.9529 9.285C89.4069 8.661 89.1339 7.79433 89.1339 6.685C89.1339 6.10433 89.2119 5.58867 89.3679 5.138C89.5239 4.68733 89.7406 4.31033 90.0179 4.007C90.3039 3.70367 90.6419 3.474 91.0319 3.318C91.4219 3.15333 91.8466 3.071 92.3059 3.071C92.8259 3.071 93.2722 3.15333 93.6449 3.318C94.0176 3.48267 94.3209 3.71233 94.5549 4.007C94.7976 4.293 94.9752 4.63533 95.0879 5.034C95.2092 5.43267 95.2699 5.87033 95.2699 6.347V6.919H90.2779C90.2779 7.257 90.3212 7.57333 90.4079 7.868C90.5032 8.154 90.6332 8.40533 90.7979 8.622C90.9712 8.83 91.1836 8.99467 91.4349 9.116C91.6862 9.23733 91.9766 9.298 92.3059 9.298C92.8692 9.298 93.2809 9.194 93.5409 8.986C93.8009 8.76933 93.9786 8.479 94.0739 8.115H95.1659ZM94.1389 6.074C94.1389 5.75333 94.1042 5.463 94.0349 5.203C93.9656 4.943 93.8572 4.722 93.7099 4.54C93.5626 4.34933 93.3719 4.202 93.1379 4.098C92.9039 3.994 92.6222 3.942 92.2929 3.942C91.6949 3.942 91.2269 4.124 90.8889 4.488C90.5596 4.852 90.3646 5.38067 90.3039 6.074H94.1389ZM96.7689 3.279H97.8869V4.306C98.2163 3.864 98.5803 3.54767 98.9789 3.357C99.3776 3.16633 99.7979 3.071 100.24 3.071C101.003 3.071 101.566 3.279 101.93 3.695C102.303 4.111 102.489 4.722 102.489 5.528V10H101.358V5.749C101.358 5.125 101.245 4.68733 101.02 4.436C100.795 4.176 100.448 4.046 99.9799 4.046C99.7286 4.046 99.4773 4.08933 99.2259 4.176C98.9833 4.26267 98.7623 4.40133 98.5629 4.592C98.3463 4.78267 98.1816 4.98633 98.0689 5.203C97.9563 5.411 97.8999 5.684 97.8999 6.022V10H96.7689V3.279ZM104.573 4.176H103.533V3.279H104.573V1.446H105.704V3.279H107.485V4.176H105.704V8.115C105.704 8.44433 105.778 8.70867 105.925 8.908C106.072 9.10733 106.298 9.207 106.601 9.207C106.792 9.207 106.956 9.194 107.095 9.168C107.242 9.142 107.377 9.10733 107.498 9.064L107.693 9.935C107.52 9.99567 107.329 10.0433 107.121 10.078C106.922 10.1213 106.683 10.143 106.406 10.143C106.025 10.143 105.717 10.0867 105.483 9.974C105.249 9.86133 105.063 9.701 104.924 9.493C104.785 9.285 104.69 9.038 104.638 8.752C104.595 8.466 104.573 8.154 104.573 7.816V4.176ZM114.31 8.115C114.198 8.765 113.907 9.27633 113.439 9.649C112.98 10.0217 112.317 10.208 111.45 10.208C110.428 10.208 109.643 9.90033 109.097 9.285C108.551 8.661 108.278 7.79433 108.278 6.685C108.278 6.10433 108.356 5.58867 108.512 5.138C108.668 4.68733 108.885 4.31033 109.162 4.007C109.448 3.70367 109.786 3.474 110.176 3.318C110.566 3.15333 110.991 3.071 111.45 3.071C111.97 3.071 112.417 3.15333 112.789 3.318C113.162 3.48267 113.465 3.71233 113.699 4.007C113.942 4.293 114.12 4.63533 114.232 5.034C114.354 5.43267 114.414 5.87033 114.414 6.347V6.919H109.422C109.422 7.257 109.466 7.57333 109.552 7.868C109.648 8.154 109.778 8.40533 109.942 8.622C110.116 8.83 110.328 8.99467 110.579 9.116C110.831 9.23733 111.121 9.298 111.45 9.298C112.014 9.298 112.425 9.194 112.685 8.986C112.945 8.76933 113.123 8.479 113.218 8.115H114.31ZM113.283 6.074C113.283 5.75333 113.249 5.463 113.179 5.203C113.11 4.943 113.002 4.722 112.854 4.54C112.707 4.34933 112.516 4.202 112.282 4.098C112.048 3.994 111.767 3.942 111.437 3.942C110.839 3.942 110.371 4.124 110.033 4.488C109.704 4.852 109.509 5.38067 109.448 6.074H113.283ZM117.338 6.464L115.089 3.279H116.415L118.014 5.658L119.678 3.279H120.887L118.677 6.451L121.121 10H119.808L117.962 7.283L116.103 10H114.855L117.338 6.464ZM122.765 4.176H121.725V3.279H122.765V1.446H123.896V3.279H125.677V4.176H123.896V8.115C123.896 8.44433 123.97 8.70867 124.117 8.908C124.265 9.10733 124.49 9.207 124.793 9.207C124.984 9.207 125.149 9.194 125.287 9.168C125.435 9.142 125.569 9.10733 125.69 9.064L125.885 9.935C125.712 9.99567 125.521 10.0433 125.313 10.078C125.114 10.1213 124.876 10.143 124.598 10.143C124.217 10.143 123.909 10.0867 123.675 9.974C123.441 9.86133 123.255 9.701 123.116 9.493C122.978 9.285 122.882 9.038 122.83 8.752C122.787 8.466 122.765 8.154 122.765 7.816V4.176ZM129.933 0.717999H133.183C133.859 0.717999 134.461 0.813333 134.99 1.004C135.527 1.186 135.978 1.46767 136.342 1.849C136.714 2.23033 137 2.707 137.2 3.279C137.399 3.851 137.499 4.52267 137.499 5.294C137.499 6.074 137.39 6.75867 137.174 7.348C136.966 7.93733 136.662 8.427 136.264 8.817C135.865 9.207 135.38 9.50167 134.808 9.701C134.236 9.90033 133.594 10 132.884 10H129.933V0.717999ZM132.936 8.96C134.088 8.96 134.929 8.63933 135.458 7.998C135.986 7.348 136.251 6.45533 136.251 5.32C136.251 4.75667 136.19 4.254 136.069 3.812C135.956 3.37 135.774 2.99733 135.523 2.694C135.28 2.382 134.964 2.148 134.574 1.992C134.184 1.82733 133.72 1.745 133.183 1.745H131.129V8.96H132.936ZM144.868 8.115C144.755 8.765 144.465 9.27633 143.997 9.649C143.538 10.0217 142.875 10.208 142.008 10.208C140.985 10.208 140.201 9.90033 139.655 9.285C139.109 8.661 138.836 7.79433 138.836 6.685C138.836 6.10433 138.914 5.58867 139.07 5.138C139.226 4.68733 139.443 4.31033 139.72 4.007C140.006 3.70367 140.344 3.474 140.734 3.318C141.124 3.15333 141.549 3.071 142.008 3.071C142.528 3.071 142.974 3.15333 143.347 3.318C143.72 3.48267 144.023 3.71233 144.257 4.007C144.5 4.293 144.677 4.63533 144.79 5.034C144.911 5.43267 144.972 5.87033 144.972 6.347V6.919H139.98C139.98 7.257 140.023 7.57333 140.11 7.868C140.205 8.154 140.335 8.40533 140.5 8.622C140.673 8.83 140.886 8.99467 141.137 9.116C141.388 9.23733 141.679 9.298 142.008 9.298C142.571 9.298 142.983 9.194 143.243 8.986C143.503 8.76933 143.681 8.479 143.776 8.115H144.868ZM143.841 6.074C143.841 5.75333 143.806 5.463 143.737 5.203C143.668 4.943 143.559 4.722 143.412 4.54C143.265 4.34933 143.074 4.202 142.84 4.098C142.606 3.994 142.324 3.942 141.995 3.942C141.397 3.942 140.929 4.124 140.591 4.488C140.262 4.852 140.067 5.38067 140.006 6.074H143.841ZM145.501 3.279H146.814L148.816 8.739L150.857 3.279H152.105L149.401 10H148.192L145.501 3.279ZM158.617 8.115C158.504 8.765 158.214 9.27633 157.746 9.649C157.287 10.0217 156.624 10.208 155.757 10.208C154.734 10.208 153.95 9.90033 153.404 9.285C152.858 8.661 152.585 7.79433 152.585 6.685C152.585 6.10433 152.663 5.58867 152.819 5.138C152.975 4.68733 153.192 4.31033 153.469 4.007C153.755 3.70367 154.093 3.474 154.483 3.318C154.873 3.15333 155.298 3.071 155.757 3.071C156.277 3.071 156.723 3.15333 157.096 3.318C157.469 3.48267 157.772 3.71233 158.006 4.007C158.249 4.293 158.426 4.63533 158.539 5.034C158.66 5.43267 158.721 5.87033 158.721 6.347V6.919H153.729C153.729 7.257 153.772 7.57333 153.859 7.868C153.954 8.154 154.084 8.40533 154.249 8.622C154.422 8.83 154.635 8.99467 154.886 9.116C155.137 9.23733 155.428 9.298 155.757 9.298C156.32 9.298 156.732 9.194 156.992 8.986C157.252 8.76933 157.43 8.479 157.525 8.115H158.617ZM157.59 6.074C157.59 5.75333 157.555 5.463 157.486 5.203C157.417 4.943 157.308 4.722 157.161 4.54C157.014 4.34933 156.823 4.202 156.589 4.098C156.355 3.994 156.073 3.942 155.744 3.942C155.146 3.942 154.678 4.124 154.34 4.488C154.011 4.852 153.816 5.38067 153.755 6.074H157.59ZM160.246 0.717999H161.377V10H160.246V0.717999ZM166.156 10.208C165.645 10.208 165.19 10.1257 164.791 9.961C164.392 9.79633 164.054 9.56233 163.777 9.259C163.5 8.95567 163.287 8.583 163.14 8.141C162.993 7.699 162.919 7.205 162.919 6.659C162.919 6.113 162.997 5.619 163.153 5.177C163.309 4.735 163.53 4.358 163.816 4.046C164.102 3.734 164.444 3.49567 164.843 3.331C165.25 3.15767 165.701 3.071 166.195 3.071C166.698 3.071 167.148 3.15333 167.547 3.318C167.946 3.48267 168.284 3.721 168.561 4.033C168.847 4.33633 169.064 4.70467 169.211 5.138C169.358 5.57133 169.432 6.061 169.432 6.607C169.432 7.16167 169.354 7.66 169.198 8.102C169.051 8.544 168.834 8.921 168.548 9.233C168.271 9.545 167.928 9.78767 167.521 9.961C167.114 10.1257 166.659 10.208 166.156 10.208ZM166.169 9.272C166.533 9.272 166.845 9.207 167.105 9.077C167.365 8.947 167.577 8.765 167.742 8.531C167.915 8.297 168.041 8.01967 168.119 7.699C168.197 7.36967 168.236 7.01 168.236 6.62C168.236 6.23867 168.197 5.88767 168.119 5.567C168.041 5.24633 167.915 4.97333 167.742 4.748C167.577 4.514 167.365 4.332 167.105 4.202C166.845 4.072 166.533 4.007 166.169 4.007C165.805 4.007 165.493 4.072 165.233 4.202C164.982 4.332 164.769 4.514 164.596 4.748C164.431 4.97333 164.31 5.24633 164.232 5.567C164.154 5.88767 164.115 6.243 164.115 6.633C164.115 7.023 164.154 7.37833 164.232 7.699C164.31 8.01967 164.431 8.297 164.596 8.531C164.761 8.765 164.973 8.947 165.233 9.077C165.493 9.207 165.805 9.272 166.169 9.272ZM170.948 3.279H172.066V4.241C172.343 3.85967 172.664 3.56933 173.028 3.37C173.4 3.17067 173.834 3.071 174.328 3.071C174.804 3.071 175.22 3.15767 175.576 3.331C175.94 3.50433 176.239 3.747 176.473 4.059C176.715 4.371 176.893 4.74367 177.006 5.177C177.127 5.60167 177.188 6.074 177.188 6.594C177.188 7.14867 177.118 7.65133 176.98 8.102C176.841 8.544 176.642 8.921 176.382 9.233C176.122 9.545 175.805 9.78767 175.433 9.961C175.069 10.1257 174.657 10.208 174.198 10.208C173.816 10.208 173.439 10.1343 173.067 9.987C172.703 9.831 172.373 9.558 172.079 9.168V12.522H170.948V3.279ZM172.066 6.828C172.066 7.26133 172.113 7.634 172.209 7.946C172.313 8.24933 172.451 8.50067 172.625 8.7C172.798 8.89933 173.006 9.04667 173.249 9.142C173.491 9.22867 173.756 9.272 174.042 9.272C174.319 9.272 174.575 9.22433 174.809 9.129C175.051 9.03367 175.259 8.882 175.433 8.674C175.606 8.45733 175.74 8.18 175.836 7.842C175.94 7.504 175.992 7.09233 175.992 6.607C175.992 6.113 175.935 5.70133 175.823 5.372C175.719 5.034 175.58 4.76533 175.407 4.566C175.233 4.36667 175.034 4.22367 174.809 4.137C174.592 4.05033 174.367 4.007 174.133 4.007C173.838 4.007 173.565 4.059 173.314 4.163C173.062 4.25833 172.841 4.40567 172.651 4.605C172.469 4.79567 172.326 5.04267 172.222 5.346C172.118 5.64067 172.066 5.983 172.066 6.373V6.828ZM184.515 8.115C184.403 8.765 184.112 9.27633 183.644 9.649C183.185 10.0217 182.522 10.208 181.655 10.208C180.633 10.208 179.848 9.90033 179.302 9.285C178.756 8.661 178.483 7.79433 178.483 6.685C178.483 6.10433 178.561 5.58867 178.717 5.138C178.873 4.68733 179.09 4.31033 179.367 4.007C179.653 3.70367 179.991 3.474 180.381 3.318C180.771 3.15333 181.196 3.071 181.655 3.071C182.175 3.071 182.622 3.15333 182.994 3.318C183.367 3.48267 183.67 3.71233 183.904 4.007C184.147 4.293 184.325 4.63533 184.437 5.034C184.559 5.43267 184.619 5.87033 184.619 6.347V6.919H179.627C179.627 7.257 179.671 7.57333 179.757 7.868C179.853 8.154 179.983 8.40533 180.147 8.622C180.321 8.83 180.533 8.99467 180.784 9.116C181.036 9.23733 181.326 9.298 181.655 9.298C182.219 9.298 182.63 9.194 182.89 8.986C183.15 8.76933 183.328 8.479 183.423 8.115H184.515ZM183.488 6.074C183.488 5.75333 183.454 5.463 183.384 5.203C183.315 4.943 183.207 4.722 183.059 4.54C182.912 4.34933 182.721 4.202 182.487 4.098C182.253 3.994 181.972 3.942 181.642 3.942C181.044 3.942 180.576 4.124 180.238 4.488C179.909 4.852 179.714 5.38067 179.653 6.074H183.488ZM186.119 3.279H187.237V4.319C187.488 3.94633 187.783 3.66033 188.121 3.461C188.459 3.26167 188.818 3.162 189.2 3.162C189.434 3.162 189.633 3.17933 189.798 3.214L189.655 4.267C189.568 4.24967 189.481 4.23667 189.395 4.228C189.308 4.21067 189.213 4.202 189.109 4.202C188.901 4.202 188.688 4.241 188.472 4.319C188.255 4.38833 188.051 4.50967 187.861 4.683C187.67 4.84767 187.518 5.03833 187.406 5.255C187.302 5.47167 187.25 5.723 187.25 6.009V10H186.119V3.279ZM201.535 6.945C201.483 7.413 201.366 7.85067 201.184 8.258C201.002 8.65667 200.755 9.00333 200.443 9.298C200.131 9.59267 199.749 9.82233 199.299 9.987C198.857 10.1517 198.341 10.234 197.752 10.234C197.11 10.234 196.534 10.1257 196.023 9.909C195.511 9.69233 195.078 9.376 194.723 8.96C194.367 8.544 194.09 8.037 193.891 7.439C193.7 6.83233 193.605 6.14333 193.605 5.372C193.605 4.592 193.709 3.89867 193.917 3.292C194.125 2.68533 194.415 2.174 194.788 1.758C195.16 1.342 195.598 1.02567 196.101 0.809C196.612 0.592333 197.162 0.483999 197.752 0.483999C198.324 0.483999 198.818 0.557666 199.234 0.705C199.65 0.852333 200.001 1.06033 200.287 1.329C200.581 1.59767 200.815 1.91833 200.989 2.291C201.171 2.66367 201.309 3.07533 201.405 3.526L200.235 3.721C200.157 3.383 200.053 3.07967 199.923 2.811C199.801 2.53367 199.641 2.29967 199.442 2.109C199.251 1.91833 199.017 1.77533 198.74 1.68C198.471 1.576 198.142 1.524 197.752 1.524C197.292 1.524 196.881 1.61933 196.517 1.81C196.161 1.992 195.858 2.252 195.607 2.59C195.364 2.91933 195.178 3.32233 195.048 3.799C194.918 4.267 194.853 4.787 194.853 5.359C194.853 5.931 194.918 6.45533 195.048 6.932C195.178 7.4 195.364 7.803 195.607 8.141C195.858 8.479 196.161 8.739 196.517 8.921C196.881 9.103 197.297 9.194 197.765 9.194C198.189 9.194 198.549 9.142 198.844 9.038C199.147 8.92533 199.394 8.76933 199.585 8.57C199.784 8.37067 199.94 8.13233 200.053 7.855C200.165 7.57767 200.248 7.27433 200.3 6.945H201.535ZM203.029 0.717999H204.16V10H203.029V0.717999ZM208.939 10.208C208.428 10.208 207.973 10.1257 207.574 9.961C207.176 9.79633 206.838 9.56233 206.56 9.259C206.283 8.95567 206.071 8.583 205.923 8.141C205.776 7.699 205.702 7.205 205.702 6.659C205.702 6.113 205.78 5.619 205.936 5.177C206.092 4.735 206.313 4.358 206.599 4.046C206.885 3.734 207.228 3.49567 207.626 3.331C208.034 3.15767 208.484 3.071 208.978 3.071C209.481 3.071 209.932 3.15333 210.33 3.318C210.729 3.48267 211.067 3.721 211.344 4.033C211.63 4.33633 211.847 4.70467 211.994 5.138C212.142 5.57133 212.215 6.061 212.215 6.607C212.215 7.16167 212.137 7.66 211.981 8.102C211.834 8.544 211.617 8.921 211.331 9.233C211.054 9.545 210.712 9.78767 210.304 9.961C209.897 10.1257 209.442 10.208 208.939 10.208ZM208.952 9.272C209.316 9.272 209.628 9.207 209.888 9.077C210.148 8.947 210.361 8.765 210.525 8.531C210.699 8.297 210.824 8.01967 210.902 7.699C210.98 7.36967 211.019 7.01 211.019 6.62C211.019 6.23867 210.98 5.88767 210.902 5.567C210.824 5.24633 210.699 4.97333 210.525 4.748C210.361 4.514 210.148 4.332 209.888 4.202C209.628 4.072 209.316 4.007 208.952 4.007C208.588 4.007 208.276 4.072 208.016 4.202C207.765 4.332 207.553 4.514 207.379 4.748C207.215 4.97333 207.093 5.24633 207.015 5.567C206.937 5.88767 206.898 6.243 206.898 6.633C206.898 7.023 206.937 7.37833 207.015 7.699C207.093 8.01967 207.215 8.297 207.379 8.531C207.544 8.765 207.756 8.947 208.016 9.077C208.276 9.207 208.588 9.272 208.952 9.272ZM213.692 3.279H214.823V7.517C214.823 8.141 214.923 8.583 215.122 8.843C215.33 9.103 215.664 9.233 216.123 9.233C216.626 9.233 217.081 9.051 217.488 8.687C217.705 8.49633 217.869 8.297 217.982 8.089C218.095 7.87233 218.151 7.595 218.151 7.257V3.279H219.282V10H218.164V8.96C217.835 9.39333 217.479 9.70967 217.098 9.909C216.717 10.1083 216.305 10.208 215.863 10.208C215.1 10.208 214.546 10.0043 214.199 9.597C213.861 9.181 213.692 8.56133 213.692 7.738V3.279ZM225.906 9.038C225.629 9.41067 225.308 9.701 224.944 9.909C224.58 10.1083 224.151 10.208 223.657 10.208C223.163 10.208 222.734 10.117 222.37 9.935C222.015 9.753 221.72 9.506 221.486 9.194C221.252 8.87333 221.079 8.49633 220.966 8.063C220.853 7.62967 220.797 7.166 220.797 6.672C220.797 6.11733 220.866 5.619 221.005 5.177C221.144 4.72633 221.339 4.345 221.59 4.033C221.85 3.721 222.162 3.48267 222.526 3.318C222.899 3.15333 223.319 3.071 223.787 3.071C224.142 3.071 224.502 3.14467 224.866 3.292C225.23 3.43067 225.568 3.69933 225.88 4.098V0.717999H227.011V10H225.906V9.038ZM225.919 6.438C225.919 5.90067 225.858 5.48467 225.737 5.19C225.624 4.88667 225.434 4.631 225.165 4.423C224.974 4.267 224.779 4.15867 224.58 4.098C224.389 4.03733 224.177 4.007 223.943 4.007C223.666 4.007 223.406 4.05467 223.163 4.15C222.929 4.24533 222.721 4.40133 222.539 4.618C222.366 4.826 222.227 5.099 222.123 5.437C222.028 5.76633 221.98 6.16933 221.98 6.646C221.98 7.14 222.032 7.556 222.136 7.894C222.249 8.232 222.392 8.50067 222.565 8.7C222.747 8.89933 222.946 9.04233 223.163 9.129C223.388 9.21567 223.618 9.259 223.852 9.259C224.103 9.259 224.329 9.22867 224.528 9.168C224.727 9.10733 224.927 9.00333 225.126 8.856C225.386 8.648 225.581 8.388 225.711 8.076C225.85 7.764 225.919 7.36967 225.919 6.893V6.438Z" fill="white"/>
</svg>
