<svg width="73" height="89" viewBox="0 0 73 89" fill="none" xmlns="http://www.w3.org/2000/svg">
<g clip-path="url(#clip0_1609_24681)">
<path d="M10.7003 71.8864C3.99662 67.4441 0 59.9979 0 51.9872V10.6596C0 9.13941 1.0426 7.83768 2.54247 7.50997L36.5 0L70.4575 7.50997C71.9483 7.83768 73 9.13941 73 10.6596V51.9781C73 59.9888 69.0034 67.435 62.2997 71.8773L36.5 89L10.7003 71.8773V71.8864ZM6.48421 13.254V51.9872C6.48421 57.8404 9.40165 63.2658 14.2945 66.5156L36.5 81.2442L58.7055 66.5156C63.5983 63.2658 66.5158 57.8404 66.5158 51.9872V13.254L36.5 6.61788L6.48421 13.254Z" fill="white"/>
<path d="M26.7295 55L36 50.3878L45.2704 55L43.4998 45.2312L51 38.3131L40.6353 36.8878L36 28L31.3646 36.8878L21 38.3131L28.5 45.2312L26.7295 55Z" fill="white"/>
</g>
<defs>
<clipPath id="clip0_1609_24681">
<rect width="73" height="89" fill="white"/>
</clipPath>
</defs>
</svg>
