<svg width="333" height="24" viewBox="0 0 333 24" fill="none" xmlns="http://www.w3.org/2000/svg">
<path d="M138.659 4.00598H140.591V19H138.659V4.00598Z" fill="white"/>
<path d="M143.447 8.14298H145.253V9.80198C145.785 9.08798 146.373 8.57698 147.017 8.26898C147.661 7.96098 148.34 7.80698 149.054 7.80698C150.286 7.80698 151.196 8.14298 151.784 8.81498C152.386 9.48698 152.687 10.474 152.687 11.776V19H150.86V12.133C150.86 11.125 150.678 10.418 150.314 10.012C149.95 9.59198 149.39 9.38198 148.634 9.38198C148.228 9.38198 147.822 9.45198 147.416 9.59198C147.024 9.73198 146.667 9.95598 146.345 10.264C145.995 10.572 145.729 10.901 145.547 11.251C145.365 11.587 145.274 12.028 145.274 12.574V19H143.447V8.14298Z" fill="white"/>
<path d="M153.749 8.14298H155.87L159.104 16.963L162.401 8.14298H164.417L160.049 19H158.096L153.749 8.14298Z" fill="white"/>
<path d="M170.212 19.336C169.386 19.336 168.651 19.203 168.007 18.937C167.363 18.671 166.817 18.293 166.369 17.803C165.921 17.313 165.578 16.711 165.34 15.997C165.102 15.283 164.983 14.485 164.983 13.603C164.983 12.721 165.109 11.923 165.361 11.209C165.613 10.495 165.97 9.88598 166.432 9.38198C166.894 8.87798 167.447 8.49298 168.091 8.22698C168.749 7.94698 169.477 7.80698 170.275 7.80698C171.087 7.80698 171.815 7.93998 172.459 8.20598C173.103 8.47198 173.649 8.85698 174.097 9.36098C174.559 9.85098 174.909 10.446 175.147 11.146C175.385 11.846 175.504 12.637 175.504 13.519C175.504 14.415 175.378 15.22 175.126 15.934C174.888 16.648 174.538 17.257 174.076 17.761C173.628 18.265 173.075 18.657 172.417 18.937C171.759 19.203 171.024 19.336 170.212 19.336ZM170.233 17.824C170.821 17.824 171.325 17.719 171.745 17.509C172.165 17.299 172.508 17.005 172.774 16.627C173.054 16.249 173.257 15.801 173.383 15.283C173.509 14.751 173.572 14.17 173.572 13.54C173.572 12.924 173.509 12.357 173.383 11.839C173.257 11.321 173.054 10.88 172.774 10.516C172.508 10.138 172.165 9.84398 171.745 9.63398C171.325 9.42398 170.821 9.31898 170.233 9.31898C169.645 9.31898 169.141 9.42398 168.721 9.63398C168.315 9.84398 167.972 10.138 167.692 10.516C167.426 10.88 167.23 11.321 167.104 11.839C166.978 12.357 166.915 12.931 166.915 13.561C166.915 14.191 166.978 14.765 167.104 15.283C167.23 15.801 167.426 16.249 167.692 16.627C167.958 17.005 168.301 17.299 168.721 17.509C169.141 17.719 169.645 17.824 170.233 17.824Z" fill="white"/>
<path d="M177.784 8.14298H179.611V19H177.784V8.14298ZM177.721 4.00598H179.674V6.12698H177.721V4.00598Z" fill="white"/>
<path d="M191.657 15.325C191.475 16.571 190.999 17.551 190.229 18.265C189.459 18.979 188.374 19.336 186.974 19.336C186.148 19.336 185.413 19.203 184.769 18.937C184.139 18.671 183.607 18.293 183.173 17.803C182.753 17.299 182.431 16.697 182.207 15.997C181.997 15.283 181.892 14.485 181.892 13.603C181.892 12.735 182.011 11.944 182.249 11.23C182.487 10.516 182.83 9.90698 183.278 9.40298C183.726 8.89898 184.272 8.50698 184.916 8.22698C185.56 7.94698 186.288 7.80698 187.1 7.80698C188.402 7.80698 189.41 8.12898 190.124 8.77298C190.838 9.40298 191.293 10.278 191.489 11.398L189.662 11.734C189.592 11.384 189.494 11.062 189.368 10.768C189.256 10.474 189.095 10.222 188.885 10.012C188.675 9.78798 188.416 9.61998 188.108 9.50798C187.814 9.38198 187.457 9.31898 187.037 9.31898C186.463 9.31898 185.973 9.43098 185.567 9.65498C185.161 9.86498 184.825 10.166 184.559 10.558C184.307 10.936 184.118 11.384 183.992 11.902C183.88 12.42 183.824 12.973 183.824 13.561C183.824 14.149 183.88 14.702 183.992 15.22C184.104 15.738 184.286 16.193 184.538 16.585C184.79 16.963 185.119 17.264 185.525 17.488C185.931 17.712 186.428 17.824 187.016 17.824C187.898 17.824 188.549 17.6 188.969 17.152C189.403 16.704 189.683 16.095 189.809 15.325H191.657Z" fill="white"/>
<path d="M202.951 15.955C202.769 17.005 202.3 17.831 201.544 18.433C200.802 19.035 199.731 19.336 198.331 19.336C196.679 19.336 195.412 18.839 194.53 17.845C193.648 16.837 193.207 15.437 193.207 13.645C193.207 12.707 193.333 11.874 193.585 11.146C193.837 10.418 194.187 9.80898 194.635 9.31898C195.097 8.82898 195.643 8.45798 196.273 8.20598C196.903 7.93998 197.589 7.80698 198.331 7.80698C199.171 7.80698 199.892 7.93998 200.494 8.20598C201.096 8.47198 201.586 8.84298 201.964 9.31898C202.356 9.78098 202.643 10.334 202.825 10.978C203.021 11.622 203.119 12.329 203.119 13.099V14.023H195.055C195.055 14.569 195.125 15.08 195.265 15.556C195.419 16.018 195.629 16.424 195.895 16.774C196.175 17.11 196.518 17.376 196.924 17.572C197.33 17.768 197.799 17.866 198.331 17.866C199.241 17.866 199.906 17.698 200.326 17.362C200.746 17.012 201.033 16.543 201.187 15.955H202.951ZM201.292 12.658C201.292 12.14 201.236 11.671 201.124 11.251C201.012 10.831 200.837 10.474 200.599 10.18C200.361 9.87198 200.053 9.63398 199.675 9.46598C199.297 9.29798 198.842 9.21398 198.31 9.21398C197.344 9.21398 196.588 9.50798 196.042 10.096C195.51 10.684 195.195 11.538 195.097 12.658H201.292Z" fill="white"/>
<path d="M210.049 4.00598H212.443L217.273 16.69L222.187 4.00598H224.497V19H222.712V7.17698L218.008 19H216.433L211.813 7.21898V19H210.049V4.00598Z" fill="white"/>
<path d="M234.108 17.509C233.716 17.985 233.219 18.398 232.617 18.748C232.015 19.084 231.266 19.252 230.37 19.252C229.824 19.252 229.32 19.182 228.858 19.042C228.41 18.916 228.018 18.72 227.682 18.454C227.36 18.174 227.108 17.831 226.926 17.425C226.744 17.019 226.653 16.543 226.653 15.997C226.653 15.255 226.807 14.653 227.115 14.191C227.437 13.729 227.857 13.365 228.375 13.099C228.907 12.833 229.502 12.644 230.16 12.532C230.818 12.42 231.497 12.35 232.197 12.322L234.066 12.259V11.839C234.066 10.915 233.87 10.25 233.478 9.84398C233.086 9.43798 232.449 9.23498 231.567 9.23498C230.699 9.23498 230.062 9.38198 229.656 9.67598C229.25 9.95598 228.984 10.348 228.858 10.852L227.199 10.663C227.395 9.66898 227.864 8.94798 228.606 8.49998C229.348 8.03798 230.356 7.80698 231.63 7.80698C232.414 7.80698 233.072 7.90498 233.604 8.10098C234.15 8.28298 234.591 8.54898 234.927 8.89898C235.263 9.24898 235.501 9.68298 235.641 10.201C235.795 10.719 235.872 11.3 235.872 11.944V19H234.108V17.509ZM234.066 13.561L232.323 13.624C231.581 13.652 230.965 13.722 230.475 13.834C229.985 13.946 229.593 14.1 229.299 14.296C229.019 14.478 228.816 14.709 228.69 14.989C228.578 15.269 228.522 15.591 228.522 15.955C228.522 16.501 228.683 16.942 229.005 17.278C229.341 17.6 229.887 17.761 230.643 17.761C231.721 17.761 232.561 17.495 233.163 16.963C233.765 16.431 234.066 15.703 234.066 14.779V13.561Z" fill="white"/>
<path d="M238.436 8.14298H240.242V9.80198C240.774 9.08798 241.362 8.57698 242.006 8.26898C242.65 7.96098 243.329 7.80698 244.043 7.80698C245.275 7.80698 246.185 8.14298 246.773 8.81498C247.375 9.48698 247.676 10.474 247.676 11.776V19H245.849V12.133C245.849 11.125 245.667 10.418 245.303 10.012C244.939 9.59198 244.379 9.38198 243.623 9.38198C243.217 9.38198 242.811 9.45198 242.405 9.59198C242.013 9.73198 241.656 9.95598 241.334 10.264C240.984 10.572 240.718 10.901 240.536 11.251C240.354 11.587 240.263 12.028 240.263 12.574V19H238.436V8.14298Z" fill="white"/>
<path d="M256.965 17.509C256.573 17.985 256.076 18.398 255.474 18.748C254.872 19.084 254.123 19.252 253.227 19.252C252.681 19.252 252.177 19.182 251.715 19.042C251.267 18.916 250.875 18.72 250.539 18.454C250.217 18.174 249.965 17.831 249.783 17.425C249.601 17.019 249.51 16.543 249.51 15.997C249.51 15.255 249.664 14.653 249.972 14.191C250.294 13.729 250.714 13.365 251.232 13.099C251.764 12.833 252.359 12.644 253.017 12.532C253.675 12.42 254.354 12.35 255.054 12.322L256.923 12.259V11.839C256.923 10.915 256.727 10.25 256.335 9.84398C255.943 9.43798 255.306 9.23498 254.424 9.23498C253.556 9.23498 252.919 9.38198 252.513 9.67598C252.107 9.95598 251.841 10.348 251.715 10.852L250.056 10.663C250.252 9.66898 250.721 8.94798 251.463 8.49998C252.205 8.03798 253.213 7.80698 254.487 7.80698C255.271 7.80698 255.929 7.90498 256.461 8.10098C257.007 8.28298 257.448 8.54898 257.784 8.89898C258.12 9.24898 258.358 9.68298 258.498 10.201C258.652 10.719 258.729 11.3 258.729 11.944V19H256.965V17.509ZM256.923 13.561L255.18 13.624C254.438 13.652 253.822 13.722 253.332 13.834C252.842 13.946 252.45 14.1 252.156 14.296C251.876 14.478 251.673 14.709 251.547 14.989C251.435 15.269 251.379 15.591 251.379 15.955C251.379 16.501 251.54 16.942 251.862 17.278C252.198 17.6 252.744 17.761 253.5 17.761C254.578 17.761 255.418 17.495 256.02 16.963C256.622 16.431 256.923 15.703 256.923 14.779V13.561Z" fill="white"/>
<path d="M263.14 20.008C263.294 20.666 263.588 21.135 264.022 21.415C264.47 21.695 265.163 21.835 266.101 21.835C267.249 21.835 268.04 21.513 268.474 20.869C268.922 20.239 269.146 19.315 269.146 18.097V16.942C268.726 17.53 268.215 17.985 267.613 18.307C267.025 18.629 266.332 18.79 265.534 18.79C264.75 18.79 264.064 18.65 263.476 18.37C262.902 18.076 262.426 17.684 262.048 17.194C261.67 16.69 261.383 16.109 261.187 15.451C261.005 14.793 260.914 14.086 260.914 13.33C260.914 12.504 261.026 11.755 261.25 11.083C261.474 10.397 261.796 9.81598 262.216 9.33998C262.636 8.84998 263.14 8.47198 263.728 8.20598C264.33 7.93998 265.002 7.80698 265.744 7.80698C266.346 7.80698 266.941 7.93298 267.529 8.18498C268.131 8.42298 268.677 8.87098 269.167 9.52898V8.14298H270.973V17.236C270.973 18.174 270.903 19.014 270.763 19.756C270.637 20.512 270.392 21.149 270.028 21.667C269.678 22.199 269.188 22.605 268.558 22.885C267.928 23.165 267.116 23.305 266.122 23.305C264.694 23.305 263.574 23.046 262.762 22.528C261.95 22.024 261.474 21.184 261.334 20.008H263.14ZM269.188 13.162C269.188 12.448 269.104 11.853 268.936 11.377C268.768 10.887 268.537 10.488 268.243 10.18C267.949 9.87198 267.606 9.65498 267.214 9.52898C266.836 9.38898 266.437 9.31898 266.017 9.31898C265.569 9.31898 265.149 9.39598 264.757 9.54998C264.379 9.68998 264.043 9.92098 263.749 10.243C263.469 10.565 263.245 10.978 263.077 11.482C262.923 11.986 262.846 12.595 262.846 13.309C262.846 14.037 262.93 14.653 263.098 15.157C263.28 15.661 263.511 16.067 263.791 16.375C264.071 16.683 264.393 16.907 264.757 17.047C265.135 17.187 265.513 17.257 265.891 17.257C266.367 17.257 266.801 17.18 267.193 17.026C267.599 16.872 267.949 16.641 268.243 16.333C268.537 16.025 268.768 15.64 268.936 15.178C269.104 14.702 269.188 14.149 269.188 13.519V13.162Z" fill="white"/>
<path d="M282.959 15.955C282.777 17.005 282.308 17.831 281.552 18.433C280.81 19.035 279.739 19.336 278.339 19.336C276.687 19.336 275.42 18.839 274.538 17.845C273.656 16.837 273.215 15.437 273.215 13.645C273.215 12.707 273.341 11.874 273.593 11.146C273.845 10.418 274.195 9.80898 274.643 9.31898C275.105 8.82898 275.651 8.45798 276.281 8.20598C276.911 7.93998 277.597 7.80698 278.339 7.80698C279.179 7.80698 279.9 7.93998 280.502 8.20598C281.104 8.47198 281.594 8.84298 281.972 9.31898C282.364 9.78098 282.651 10.334 282.833 10.978C283.029 11.622 283.127 12.329 283.127 13.099V14.023H275.063C275.063 14.569 275.133 15.08 275.273 15.556C275.427 16.018 275.637 16.424 275.903 16.774C276.183 17.11 276.526 17.376 276.932 17.572C277.338 17.768 277.807 17.866 278.339 17.866C279.249 17.866 279.914 17.698 280.334 17.362C280.754 17.012 281.041 16.543 281.195 15.955H282.959ZM281.3 12.658C281.3 12.14 281.244 11.671 281.132 11.251C281.02 10.831 280.845 10.474 280.607 10.18C280.369 9.87198 280.061 9.63398 279.683 9.46598C279.305 9.29798 278.85 9.21398 278.318 9.21398C277.352 9.21398 276.596 9.50798 276.05 10.096C275.518 10.684 275.203 11.538 275.105 12.658H281.3Z" fill="white"/>
<path d="M285.338 8.14298H287.144V9.80198C287.634 9.12998 288.173 8.63298 288.761 8.31098C289.349 7.97498 289.951 7.80698 290.567 7.80698C291.379 7.80698 292.03 7.98198 292.52 8.33198C293.024 8.68198 293.395 9.18598 293.633 9.84398C294.123 9.17198 294.683 8.66798 295.313 8.33198C295.943 7.98198 296.615 7.80698 297.329 7.80698C298.393 7.80698 299.212 8.10098 299.786 8.68898C300.374 9.26298 300.668 10.194 300.668 11.482V19H298.841V11.902C298.841 11.412 298.799 11.006 298.715 10.684C298.631 10.348 298.505 10.089 298.337 9.90698C298.183 9.71098 297.987 9.57798 297.749 9.50798C297.511 9.42398 297.238 9.38198 296.93 9.38198C296.608 9.38198 296.272 9.43798 295.922 9.54998C295.572 9.66198 295.229 9.85798 294.893 10.138C294.613 10.376 294.382 10.663 294.2 10.999C294.018 11.335 293.927 11.72 293.927 12.154V19H292.1V11.923C292.1 10.971 291.932 10.313 291.596 9.94898C291.274 9.57098 290.805 9.38198 290.189 9.38198C289.475 9.38198 288.803 9.67598 288.173 10.264C287.935 10.488 287.704 10.775 287.48 11.125C287.27 11.475 287.165 11.944 287.165 12.532V19H285.338V8.14298Z" fill="white"/>
<path d="M312.603 15.955C312.421 17.005 311.952 17.831 311.196 18.433C310.454 19.035 309.383 19.336 307.983 19.336C306.331 19.336 305.064 18.839 304.182 17.845C303.3 16.837 302.859 15.437 302.859 13.645C302.859 12.707 302.985 11.874 303.237 11.146C303.489 10.418 303.839 9.80898 304.287 9.31898C304.749 8.82898 305.295 8.45798 305.925 8.20598C306.555 7.93998 307.241 7.80698 307.983 7.80698C308.823 7.80698 309.544 7.93998 310.146 8.20598C310.748 8.47198 311.238 8.84298 311.616 9.31898C312.008 9.78098 312.295 10.334 312.477 10.978C312.673 11.622 312.771 12.329 312.771 13.099V14.023H304.707C304.707 14.569 304.777 15.08 304.917 15.556C305.071 16.018 305.281 16.424 305.547 16.774C305.827 17.11 306.17 17.376 306.576 17.572C306.982 17.768 307.451 17.866 307.983 17.866C308.893 17.866 309.558 17.698 309.978 17.362C310.398 17.012 310.685 16.543 310.839 15.955H312.603ZM310.944 12.658C310.944 12.14 310.888 11.671 310.776 11.251C310.664 10.831 310.489 10.474 310.251 10.18C310.013 9.87198 309.705 9.63398 309.327 9.46598C308.949 9.29798 308.494 9.21398 307.962 9.21398C306.996 9.21398 306.24 9.50798 305.694 10.096C305.162 10.684 304.847 11.538 304.749 12.658H310.944Z" fill="white"/>
<path d="M314.983 8.14298H316.789V9.80198C317.321 9.08798 317.909 8.57698 318.553 8.26898C319.197 7.96098 319.876 7.80698 320.59 7.80698C321.822 7.80698 322.732 8.14298 323.32 8.81498C323.922 9.48698 324.223 10.474 324.223 11.776V19H322.396V12.133C322.396 11.125 322.214 10.418 321.85 10.012C321.486 9.59198 320.926 9.38198 320.17 9.38198C319.764 9.38198 319.358 9.45198 318.952 9.59198C318.56 9.73198 318.203 9.95598 317.881 10.264C317.531 10.572 317.265 10.901 317.083 11.251C316.901 11.587 316.81 12.028 316.81 12.574V19H314.983V8.14298Z" fill="white"/>
<path d="M327.379 9.59198H325.699V8.14298H327.379V5.18198H329.206V8.14298H332.083V9.59198H329.206V15.955C329.206 16.487 329.325 16.914 329.563 17.236C329.801 17.558 330.165 17.719 330.655 17.719C330.963 17.719 331.229 17.698 331.453 17.656C331.691 17.614 331.908 17.558 332.104 17.488L332.419 18.895C332.139 18.993 331.831 19.07 331.495 19.126C331.173 19.196 330.788 19.231 330.34 19.231C329.724 19.231 329.227 19.14 328.849 18.958C328.471 18.776 328.17 18.517 327.946 18.181C327.722 17.845 327.568 17.446 327.484 16.984C327.414 16.522 327.379 16.018 327.379 15.472V9.59198Z" fill="white"/>
<path d="M129 0H128V24H129V0Z" fill="white"/>
<path d="M16.1472 11.4981C16.1472 15.2961 13.9632 19.4152 8.11777 19.4152C3.85413 19.4312 -1.83779e-07 17.0224 -1.83779e-07 11.4981C-1.83779e-07 6.89725 2.90666 3.35627 8.66377 3.66942C14.7902 4.01469 16.1472 8.76009 16.1472 11.4981ZM5.21111 8.60753C4.69057 9.47086 4.43121 10.4665 4.46437 11.474C4.46437 13.8026 5.61258 15.9143 8.09368 15.9143C10.5748 15.9143 11.6587 13.9712 11.6587 11.6667C11.7144 11.0018 11.6335 10.3326 11.4208 9.70012C11.2082 9.06767 10.8683 8.48544 10.4222 7.98926C10.0727 7.67737 9.66026 7.44425 9.21279 7.30572C8.76532 7.16718 8.29329 7.12646 7.82871 7.18632C7.30647 7.17509 6.79034 7.30028 6.33129 7.54952C5.87223 7.79877 5.48613 8.16344 5.21111 8.60753Z" fill="white"/>
<path d="M55.4273 5.3635C55.8303 4.86099 56.3405 4.45496 56.9207 4.17514C57.7897 3.83161 58.7163 3.65719 59.6507 3.66126C60.5758 3.63345 61.4936 3.8319 62.3246 4.23938C63.9304 5.04232 64.3078 6.42339 64.3078 8.75995V19.0376H59.9157V10.5987C59.9913 9.84333 59.9232 9.08048 59.715 8.35045C59.5401 7.98029 59.2567 7.67214 58.9024 7.46702C58.5481 7.26191 58.1398 7.16955 57.7317 7.20224C55.4032 7.20224 55.4032 9.0731 55.4032 10.944V19.0376H50.9629V4.04667H55.4273V5.3635Z" fill="white"/>
<path d="M48.8591 15.1596C48.4496 16.0187 47.1488 19.4152 41.3756 19.4152C36.9113 19.4152 33.7798 16.6852 33.7798 11.7631C33.7798 8.13381 35.5623 3.66944 41.4961 3.66944C42.4859 3.58863 43.4815 3.72177 44.4153 4.05982C45.3491 4.39787 46.1992 4.93292 46.9079 5.62862C48.8671 7.73233 48.9795 10.6631 49.0357 12.3653H38.3004C38.3004 14.2362 39.3362 16.107 41.7209 16.107C44.1056 16.107 44.9327 14.5012 45.5188 13.4573L48.8591 15.1596ZM44.4589 9.60319C44.4302 8.82541 44.1483 8.07828 43.656 7.47539C43.0647 6.94224 42.2921 6.65503 41.4961 6.67245C41.0739 6.67084 40.656 6.7571 40.2689 6.92575C39.8819 7.09439 39.5341 7.34173 39.2478 7.65204C38.77 8.21605 38.461 8.9035 38.3566 9.63531L44.4589 9.60319Z" fill="white"/>
<path d="M110.477 7.15429H113.424V4.0469H110.517V0.8833H106.117V4.03887H105.394L103.379 7.15429H106.093V14.2925C106.093 15.7297 106.093 16.7977 106.727 17.6889C107.675 19.07 109.345 19.1583 110.87 19.1583C111.652 19.1451 112.43 19.0672 113.199 18.9255V15.4728L111.593 15.529C110.413 15.529 110.413 14.7261 110.445 13.8348L110.477 7.15429Z" fill="white"/>
<path d="M66.5237 0.8833H70.9238V4.03887H75.5006L73.4852 7.15429H70.8676V13.8107C70.8676 14.7341 70.8676 15.5049 72.0158 15.5049L73.6217 15.4487V18.9014C72.8533 19.0431 72.0744 19.121 71.2931 19.1342C69.7675 19.1342 68.0814 19.0459 67.15 17.6648C66.5477 16.7736 66.5156 15.7056 66.5156 14.2684L66.5237 0.8833Z" fill="white"/>
<path d="M117.55 8.15427H117.004V5.50455H116V5.04688H118.529V5.50455H117.542L117.55 8.15427ZM121.813 8.15427H121.275V6.23523V5.60091L121.123 6.12282L120.488 8.15427H119.999L119.372 6.12282L119.212 5.60894V6.23523V8.15427H118.69V5.04688H119.429L120.232 7.50388L120.994 5.04688H121.733L121.813 8.15427Z" fill="white"/>
<path d="M89.3356 15.1676L88.5327 16.4683C87.7298 17.6246 86.2604 19.4071 82.0048 19.4071C77.5404 19.4071 74.5454 16.6771 74.5454 11.7551C74.5454 8.12575 76.3279 3.66138 82.2617 3.66138C83.2515 3.58057 84.2471 3.71371 85.1809 4.05177C86.1147 4.38982 86.9648 4.92486 87.6735 5.62056C89.6327 7.72428 89.7451 10.655 89.8014 12.3573H79.066C79.066 14.2281 79.9653 16.099 82.35 16.099C84.7348 16.099 85.4655 14.4931 86.0115 13.4493L89.3356 15.1676ZM85.1844 9.60317C85.1557 8.82538 84.8737 8.07825 84.3815 7.47537C83.7902 6.94221 83.0176 6.655 82.2216 6.67242C81.7994 6.67081 81.3814 6.75707 80.9944 6.92572C80.6073 7.09436 80.2596 7.34171 79.9733 7.65201C79.4954 8.21602 79.1865 8.90347 79.082 9.63528L85.1844 9.60317Z" fill="white"/>
<path d="M104.463 19.0378L98.9547 11.1449L103.548 4.03882H98.505L96.3371 7.39512L94.0005 4.03882H88.958L93.9122 11.1449L88.8135 19.0378H93.856L96.5298 14.8946L99.4204 19.0378H104.463Z" fill="white"/>
<path d="M22.2337 5.36379C22.7152 4.79596 23.3218 4.34746 24.0059 4.05351C24.6899 3.75955 25.4328 3.62814 26.1761 3.66958C29.8617 3.66958 32.4471 6.46383 32.4471 11.4662C32.4471 14.5414 31.323 19.4073 26.0236 19.4073C25.3069 19.4241 24.5954 19.2807 23.9412 18.9876C23.2869 18.6945 22.7063 18.2591 22.2417 17.7131V24.0001H17.7773V4.04696H22.2417L22.2337 5.36379ZM25.2287 7.12224C24.7886 7.12037 24.3542 7.22097 23.9598 7.41608C23.5654 7.6112 23.2218 7.89546 22.9563 8.24636C22.2922 9.21104 21.9673 10.3691 22.0329 11.5384C21.9501 12.7817 22.3305 14.0117 23.1009 14.9911C23.3511 15.2762 23.6583 15.5056 24.0027 15.6647C24.347 15.8237 24.7209 15.9088 25.1002 15.9145C27.2601 15.9145 28.2076 13.6421 28.2076 11.4421C28.2076 9.59531 27.6616 7.63612 25.8469 7.21056C25.6453 7.15639 25.4374 7.12939 25.2287 7.13027V7.12224Z" fill="white"/>
</svg>
