<svg width="20" height="20" viewBox="0 0 20 20" fill="none" xmlns="http://www.w3.org/2000/svg">
<circle cx="10" cy="10" r="10" fill="#347928"/>
<path d="M14.8288 9.74969L15.7826 11.4017C16.3845 12.4443 16.0273 13.7774 14.9848 14.3793C14.6534 14.5706 14.2775 14.6713 13.8949 14.6713L12.6104 14.671L12.6106 16.2283L9.49661 14.0486L12.6106 11.8688L12.6104 13.4254L13.8949 13.4258C14.0589 13.4258 14.22 13.3826 14.362 13.3006C14.8088 13.0426 14.9619 12.4713 14.7039 12.0245L13.7501 10.3725L14.8288 9.74969ZM7.1947 7.9041L7.52546 11.6907L6.17701 10.9118L5.53493 12.0245C5.45294 12.1665 5.40978 12.3276 5.40978 12.4916C5.40978 13.0075 5.82802 13.4258 6.34396 13.4258L8.25152 13.4258V14.6713H6.34396C5.14011 14.6713 4.1642 13.6954 4.1642 12.4916C4.1642 12.1089 4.26492 11.7331 4.45623 11.4017L5.09834 10.289L3.75 9.51098L7.1947 7.9041ZM11.2093 4.06457C11.5407 4.25588 11.8158 4.53105 12.0071 4.86242L12.649 5.97435L13.9977 5.19616L13.6669 8.98279L10.2222 7.37593L11.5704 6.59714L10.9285 5.48521C10.8464 5.34319 10.7286 5.22526 10.5865 5.14327C10.1397 4.8853 9.56836 5.03839 9.3104 5.48521L8.35658 7.13716L7.27789 6.5144L8.23169 4.86242C8.83362 3.81985 10.1667 3.46264 11.2093 4.06457Z" fill="white"/>
</svg>
