<svg width="80" height="80" viewBox="0 0 80 80" fill="none" xmlns="http://www.w3.org/2000/svg">
<path d="M40 1.5C47.6146 1.5 55.0582 3.75798 61.3895 7.98842C67.7208 12.2189 72.6554 18.2317 75.5694 25.2667C78.4833 32.3016 79.2458 40.0427 77.7602 47.511C76.2747 54.9792 72.6079 61.8393 67.2236 67.2236C61.8393 72.6079 54.9793 76.2747 47.511 77.7602C40.0427 79.2458 32.3017 78.4833 25.2667 75.5693C18.2317 72.6554 12.2189 67.7207 7.98844 61.3894C3.758 55.0582 1.50002 47.6146 1.50002 40C1.51166 29.7927 5.57164 20.0069 12.7893 12.7892C20.0069 5.57162 29.7928 1.51165 40 1.5ZM40 0C32.0888 0 24.3552 2.34596 17.7772 6.74121C11.1992 11.1365 6.07234 17.3836 3.04484 24.6927C0.0173311 32.0017 -0.774802 40.0444 0.768607 47.8036C2.31202 55.5628 6.12165 62.6902 11.7157 68.2843C17.3098 73.8784 24.4372 77.688 32.1964 79.2314C39.9556 80.7748 47.9983 79.9827 55.3073 76.9552C62.6164 73.9277 68.8635 68.8008 73.2588 62.2228C77.654 55.6448 80 47.9112 80 40C80 29.3913 75.7857 19.2172 68.2843 11.7157C60.7828 4.21427 50.6087 0 40 0V0Z" fill="white"/>
<path d="M39.7675 60.919L39.0887 60.8514C30.6356 58.1718 22.0767 51.1643 22.0767 42.955V28.978C22.5762 26.0193 25.7817 25.3288 29.4897 24.5237C32.9009 23.7863 36.7676 22.9489 38.3072 20.5983L39.5353 18.7179L40.7635 20.5983C42.3031 22.9489 46.1698 23.7863 49.581 24.5237C53.2949 25.3259 56.4975 26.0193 56.9764 28.7224L56.9999 42.955C56.9999 51.1643 48.441 58.1718 39.9878 60.8514L39.7675 60.919ZM39.5353 23.6452C37.0937 25.8871 33.277 26.7098 30.1126 27.3943C28.2468 27.7969 25.1265 28.4727 24.9913 29.2307L25.0148 42.952C25.0148 49.5394 32.4161 55.501 39.5353 57.9044C46.6604 55.504 54.0588 49.5394 54.0588 42.952V28.9751C53.9471 28.4727 50.8238 27.7969 48.961 27.3943C45.7937 26.7098 41.977 25.8871 39.5353 23.6452Z" fill="white"/>
<path d="M24.2832 47.3158L33.6353 38.8139L38.7365 44.7652L55.7404 27.7614" stroke="white" stroke-width="4"/>
</svg>
