<svg width="411" height="303" viewBox="0 0 411 303" fill="none" xmlns="http://www.w3.org/2000/svg">
<rect x="0.5" y="0.5" width="410" height="302" stroke="#94BBEA"/>
<path d="M405 5H5V297H405V5Z" fill="#7E60BF"/>
<path d="M136.378 184.128C136.57 185.328 137.042 186.2 137.794 186.744C138.562 187.272 139.698 187.536 141.202 187.536C141.954 187.536 142.578 187.456 143.074 187.296C143.586 187.12 143.994 186.896 144.298 186.624C144.602 186.336 144.818 186.008 144.946 185.64C145.074 185.256 145.138 184.856 145.138 184.44C145.138 184.104 145.098 183.784 145.018 183.48C144.938 183.16 144.778 182.872 144.538 182.616C144.314 182.36 143.994 182.136 143.578 181.944C143.178 181.752 142.658 181.6 142.018 181.488L139.858 181.104C139.01 180.96 138.258 180.768 137.602 180.528C136.946 180.288 136.386 179.984 135.922 179.616C135.474 179.232 135.13 178.76 134.89 178.2C134.666 177.64 134.554 176.96 134.554 176.16C134.554 175.376 134.714 174.688 135.034 174.096C135.37 173.504 135.818 173.008 136.378 172.608C136.938 172.208 137.602 171.912 138.37 171.72C139.138 171.528 139.97 171.432 140.866 171.432C142.002 171.432 142.946 171.56 143.698 171.816C144.466 172.056 145.09 172.384 145.57 172.8C146.05 173.216 146.41 173.696 146.65 174.24C146.906 174.768 147.098 175.312 147.226 175.872L145.162 176.28C145.034 175.8 144.866 175.376 144.658 175.008C144.466 174.624 144.202 174.312 143.866 174.072C143.546 173.816 143.146 173.624 142.666 173.496C142.186 173.368 141.602 173.304 140.914 173.304C140.13 173.304 139.474 173.376 138.946 173.52C138.418 173.664 137.994 173.864 137.674 174.12C137.354 174.36 137.122 174.656 136.978 175.008C136.85 175.344 136.786 175.704 136.786 176.088C136.786 176.504 136.834 176.872 136.93 177.192C137.042 177.496 137.218 177.768 137.458 178.008C137.714 178.232 138.042 178.424 138.442 178.584C138.842 178.728 139.338 178.856 139.93 178.968L142.33 179.4C144.106 179.736 145.41 180.296 146.242 181.08C147.074 181.848 147.49 182.984 147.49 184.488C147.49 185.176 147.354 185.824 147.082 186.432C146.826 187.024 146.434 187.544 145.906 187.992C145.394 188.44 144.746 188.792 143.962 189.048C143.178 189.304 142.258 189.432 141.202 189.432C140.194 189.432 139.274 189.328 138.442 189.12C137.626 188.928 136.914 188.616 136.306 188.184C135.698 187.752 135.21 187.2 134.842 186.528C134.474 185.856 134.25 185.056 134.17 184.128H136.378ZM150.192 176.592H152.28V184.416C152.28 185.568 152.464 186.384 152.832 186.864C153.216 187.344 153.832 187.584 154.68 187.584C155.608 187.584 156.448 187.248 157.2 186.576C157.6 186.224 157.904 185.856 158.112 185.472C158.32 185.072 158.424 184.56 158.424 183.936V176.592H160.512V189H158.448V187.08C157.84 187.88 157.184 188.464 156.48 188.832C155.776 189.2 155.016 189.384 154.2 189.384C152.792 189.384 151.768 189.008 151.128 188.256C150.504 187.488 150.192 186.344 150.192 184.824V176.592ZM163.717 176.592H165.781V178.368C166.293 177.664 166.885 177.128 167.557 176.76C168.245 176.392 169.045 176.208 169.957 176.208C170.837 176.208 171.605 176.368 172.261 176.688C172.933 177.008 173.485 177.456 173.917 178.032C174.365 178.608 174.693 179.296 174.901 180.096C175.125 180.88 175.237 181.752 175.237 182.712C175.237 183.736 175.109 184.664 174.853 185.496C174.597 186.312 174.229 187.008 173.749 187.584C173.269 188.16 172.685 188.608 171.997 188.928C171.325 189.232 170.565 189.384 169.717 189.384C169.013 189.384 168.317 189.248 167.629 188.976C166.957 188.688 166.349 188.184 165.805 187.464V193.656H163.717V176.592ZM165.781 183.144C165.781 183.944 165.869 184.632 166.045 185.208C166.237 185.768 166.493 186.232 166.813 186.6C167.133 186.968 167.517 187.24 167.965 187.416C168.413 187.576 168.901 187.656 169.429 187.656C169.941 187.656 170.413 187.568 170.845 187.392C171.293 187.216 171.677 186.936 171.997 186.552C172.317 186.152 172.565 185.64 172.741 185.016C172.933 184.392 173.029 183.632 173.029 182.736C173.029 181.824 172.925 181.064 172.717 180.456C172.525 179.832 172.269 179.336 171.949 178.968C171.629 178.6 171.261 178.336 170.845 178.176C170.445 178.016 170.029 177.936 169.597 177.936C169.053 177.936 168.549 178.032 168.085 178.224C167.621 178.4 167.213 178.672 166.861 179.04C166.525 179.392 166.261 179.848 166.069 180.408C165.877 180.952 165.781 181.584 165.781 182.304V183.144ZM178.038 176.592H180.102V178.368C180.614 177.664 181.206 177.128 181.878 176.76C182.566 176.392 183.366 176.208 184.278 176.208C185.158 176.208 185.926 176.368 186.582 176.688C187.254 177.008 187.806 177.456 188.238 178.032C188.686 178.608 189.014 179.296 189.222 180.096C189.446 180.88 189.558 181.752 189.558 182.712C189.558 183.736 189.43 184.664 189.174 185.496C188.918 186.312 188.55 187.008 188.07 187.584C187.59 188.16 187.006 188.608 186.318 188.928C185.646 189.232 184.886 189.384 184.038 189.384C183.334 189.384 182.638 189.248 181.95 188.976C181.278 188.688 180.67 188.184 180.126 187.464V193.656H178.038V176.592ZM180.102 183.144C180.102 183.944 180.19 184.632 180.366 185.208C180.558 185.768 180.814 186.232 181.134 186.6C181.454 186.968 181.838 187.24 182.286 187.416C182.734 187.576 183.222 187.656 183.75 187.656C184.262 187.656 184.734 187.568 185.166 187.392C185.614 187.216 185.998 186.936 186.318 186.552C186.638 186.152 186.886 185.64 187.062 185.016C187.254 184.392 187.35 183.632 187.35 182.736C187.35 181.824 187.246 181.064 187.038 180.456C186.846 179.832 186.59 179.336 186.27 178.968C185.95 178.6 185.582 178.336 185.166 178.176C184.766 178.016 184.35 177.936 183.918 177.936C183.374 177.936 182.87 178.032 182.406 178.224C181.942 178.4 181.534 178.672 181.182 179.04C180.846 179.392 180.582 179.848 180.39 180.408C180.198 180.952 180.102 181.584 180.102 182.304V183.144ZM192.406 171.864H194.494V189H192.406V171.864ZM197.701 191.64C198.149 191.8 198.597 191.88 199.045 191.88C199.557 191.88 199.949 191.744 200.221 191.472C200.509 191.216 200.789 190.728 201.061 190.008L201.565 188.688L196.309 176.592H198.733L202.645 186.336L206.221 176.592H208.525L203.101 190.176C202.877 190.736 202.653 191.224 202.429 191.64C202.205 192.072 201.957 192.44 201.685 192.744C201.413 193.048 201.085 193.272 200.701 193.416C200.333 193.576 199.877 193.656 199.333 193.656C198.949 193.656 198.605 193.632 198.301 193.584C197.997 193.536 197.661 193.448 197.293 193.32L197.701 191.64ZM229.983 183.36C229.887 184.224 229.671 185.032 229.335 185.784C228.999 186.52 228.543 187.16 227.967 187.704C227.391 188.248 226.687 188.672 225.855 188.976C225.039 189.28 224.087 189.432 222.999 189.432C221.815 189.432 220.751 189.232 219.807 188.832C218.863 188.432 218.063 187.848 217.407 187.08C216.751 186.312 216.239 185.376 215.871 184.272C215.519 183.152 215.343 181.88 215.343 180.456C215.343 179.016 215.535 177.736 215.919 176.616C216.303 175.496 216.839 174.552 217.527 173.784C218.215 173.016 219.023 172.432 219.951 172.032C220.895 171.632 221.911 171.432 222.999 171.432C224.055 171.432 224.967 171.568 225.735 171.84C226.503 172.112 227.151 172.496 227.679 172.992C228.223 173.488 228.655 174.08 228.975 174.768C229.311 175.456 229.567 176.216 229.743 177.048L227.583 177.408C227.439 176.784 227.247 176.224 227.007 175.728C226.783 175.216 226.487 174.784 226.119 174.432C225.767 174.08 225.335 173.816 224.823 173.64C224.327 173.448 223.719 173.352 222.999 173.352C222.151 173.352 221.391 173.528 220.719 173.88C220.063 174.216 219.503 174.696 219.039 175.32C218.591 175.928 218.247 176.672 218.007 177.552C217.767 178.416 217.647 179.376 217.647 180.432C217.647 181.488 217.767 182.456 218.007 183.336C218.247 184.2 218.591 184.944 219.039 185.568C219.503 186.192 220.063 186.672 220.719 187.008C221.391 187.344 222.159 187.512 223.023 187.512C223.807 187.512 224.471 187.416 225.015 187.224C225.575 187.016 226.031 186.728 226.383 186.36C226.751 185.992 227.039 185.552 227.247 185.04C227.455 184.528 227.607 183.968 227.703 183.36H229.983ZM232.694 171.864H234.782V178.44C235.39 177.656 236.054 177.088 236.774 176.736C237.51 176.384 238.286 176.208 239.102 176.208C240.51 176.208 241.55 176.592 242.222 177.36C242.91 178.128 243.254 179.256 243.254 180.744V189H241.142V181.152C241.142 180 240.934 179.192 240.518 178.728C240.118 178.248 239.486 178.008 238.622 178.008C238.158 178.008 237.694 178.088 237.23 178.248C236.782 178.408 236.374 178.664 236.006 179.016C235.606 179.368 235.302 179.744 235.094 180.144C234.886 180.528 234.782 181.032 234.782 181.656V189H232.694V171.864ZM254.109 187.296C253.661 187.84 253.093 188.312 252.405 188.712C251.717 189.096 250.861 189.288 249.837 189.288C249.213 189.288 248.637 189.208 248.109 189.048C247.597 188.904 247.149 188.68 246.765 188.376C246.397 188.056 246.109 187.664 245.901 187.2C245.693 186.736 245.589 186.192 245.589 185.568C245.589 184.72 245.765 184.032 246.117 183.504C246.485 182.976 246.965 182.56 247.557 182.256C248.165 181.952 248.845 181.736 249.597 181.608C250.349 181.48 251.125 181.4 251.925 181.368L254.061 181.296V180.816C254.061 179.76 253.837 179 253.389 178.536C252.941 178.072 252.213 177.84 251.205 177.84C250.213 177.84 249.485 178.008 249.021 178.344C248.557 178.664 248.253 179.112 248.109 179.688L246.213 179.472C246.437 178.336 246.973 177.512 247.821 177C248.669 176.472 249.821 176.208 251.277 176.208C252.173 176.208 252.925 176.32 253.533 176.544C254.157 176.752 254.661 177.056 255.045 177.456C255.429 177.856 255.701 178.352 255.861 178.944C256.037 179.536 256.125 180.2 256.125 180.936V189H254.109V187.296ZM254.061 182.784L252.069 182.856C251.221 182.888 250.517 182.968 249.957 183.096C249.397 183.224 248.949 183.4 248.613 183.624C248.293 183.832 248.061 184.096 247.917 184.416C247.789 184.736 247.725 185.104 247.725 185.52C247.725 186.144 247.909 186.648 248.277 187.032C248.661 187.4 249.285 187.584 250.149 187.584C251.381 187.584 252.341 187.28 253.029 186.672C253.717 186.064 254.061 185.232 254.061 184.176V182.784ZM259.344 176.592H261.432V189H259.344V176.592ZM259.271 171.864H261.504V174.288H259.271V171.864ZM264.686 176.592H266.75V178.488C267.358 177.672 268.03 177.088 268.766 176.736C269.502 176.384 270.278 176.208 271.094 176.208C272.502 176.208 273.542 176.592 274.214 177.36C274.902 178.128 275.246 179.256 275.246 180.744V189H273.158V181.152C273.158 180 272.95 179.192 272.534 178.728C272.118 178.248 271.478 178.008 270.614 178.008C270.15 178.008 269.686 178.088 269.222 178.248C268.774 178.408 268.366 178.664 267.998 179.016C267.598 179.368 267.294 179.744 267.086 180.144C266.878 180.528 266.774 181.032 266.774 181.656V189H264.686V176.592ZM125.365 209.512H117.341V206.724H136.551V209.512H128.527V231H125.365V209.512ZM135.675 213.422H138.599V216.142C139.257 215.167 140.027 214.419 140.911 213.898C141.795 213.377 142.736 213.116 143.733 213.116C144.345 213.116 144.867 213.161 145.297 213.252L144.923 216.006C144.697 215.961 144.47 215.927 144.243 215.904C144.017 215.859 143.767 215.836 143.495 215.836C142.951 215.836 142.396 215.938 141.829 216.142C141.263 216.323 140.73 216.641 140.231 217.094C139.733 217.525 139.336 218.023 139.041 218.59C138.769 219.157 138.633 219.814 138.633 220.562V231H135.675V213.422ZM158.411 228.586C157.776 229.357 156.971 230.025 155.997 230.592C155.022 231.136 153.809 231.408 152.359 231.408C151.475 231.408 150.659 231.295 149.911 231.068C149.185 230.864 148.551 230.547 148.007 230.116C147.485 229.663 147.077 229.107 146.783 228.45C146.488 227.793 146.341 227.022 146.341 226.138C146.341 224.937 146.59 223.962 147.089 223.214C147.61 222.466 148.29 221.877 149.129 221.446C149.99 221.015 150.953 220.709 152.019 220.528C153.084 220.347 154.183 220.233 155.317 220.188L158.343 220.086V219.406C158.343 217.91 158.025 216.833 157.391 216.176C156.756 215.519 155.725 215.19 154.297 215.19C152.891 215.19 151.86 215.428 151.203 215.904C150.545 216.357 150.115 216.992 149.911 217.808L147.225 217.502C147.542 215.893 148.301 214.725 149.503 214C150.704 213.252 152.336 212.878 154.399 212.878C155.668 212.878 156.733 213.037 157.595 213.354C158.479 213.649 159.193 214.079 159.737 214.646C160.281 215.213 160.666 215.915 160.893 216.754C161.142 217.593 161.267 218.533 161.267 219.576V231H158.411V228.586ZM158.343 222.194L155.521 222.296C154.319 222.341 153.322 222.455 152.529 222.636C151.735 222.817 151.101 223.067 150.625 223.384C150.171 223.679 149.843 224.053 149.639 224.506C149.457 224.959 149.367 225.481 149.367 226.07C149.367 226.954 149.627 227.668 150.149 228.212C150.693 228.733 151.577 228.994 152.801 228.994C154.546 228.994 155.906 228.563 156.881 227.702C157.855 226.841 158.343 225.662 158.343 224.166V222.194ZM180.989 225.05C180.695 227.067 179.924 228.654 178.677 229.81C177.431 230.966 175.674 231.544 173.407 231.544C172.07 231.544 170.88 231.329 169.837 230.898C168.817 230.467 167.956 229.855 167.253 229.062C166.573 228.246 166.052 227.271 165.689 226.138C165.349 224.982 165.179 223.69 165.179 222.262C165.179 220.857 165.372 219.576 165.757 218.42C166.143 217.264 166.698 216.278 167.423 215.462C168.149 214.646 169.033 214.011 170.075 213.558C171.118 213.105 172.297 212.878 173.611 212.878C175.719 212.878 177.351 213.399 178.507 214.442C179.663 215.462 180.4 216.879 180.717 218.692L177.759 219.236C177.646 218.669 177.487 218.148 177.283 217.672C177.102 217.196 176.841 216.788 176.501 216.448C176.161 216.085 175.742 215.813 175.243 215.632C174.767 215.428 174.189 215.326 173.509 215.326C172.58 215.326 171.787 215.507 171.129 215.87C170.472 216.21 169.928 216.697 169.497 217.332C169.089 217.944 168.783 218.669 168.579 219.508C168.398 220.347 168.307 221.242 168.307 222.194C168.307 223.146 168.398 224.041 168.579 224.88C168.761 225.719 169.055 226.455 169.463 227.09C169.871 227.702 170.404 228.189 171.061 228.552C171.719 228.915 172.523 229.096 173.475 229.096C174.903 229.096 175.957 228.733 176.637 228.008C177.34 227.283 177.793 226.297 177.997 225.05H180.989ZM199.616 226.07C199.321 227.77 198.562 229.107 197.338 230.082C196.136 231.057 194.402 231.544 192.136 231.544C189.461 231.544 187.41 230.739 185.982 229.13C184.554 227.498 183.84 225.231 183.84 222.33C183.84 220.811 184.044 219.463 184.452 218.284C184.86 217.105 185.426 216.119 186.152 215.326C186.9 214.533 187.784 213.932 188.804 213.524C189.824 213.093 190.934 212.878 192.136 212.878C193.496 212.878 194.663 213.093 195.638 213.524C196.612 213.955 197.406 214.555 198.018 215.326C198.652 216.074 199.117 216.969 199.412 218.012C199.729 219.055 199.888 220.199 199.888 221.446V222.942H186.832C186.832 223.826 186.945 224.653 187.172 225.424C187.421 226.172 187.761 226.829 188.192 227.396C188.645 227.94 189.2 228.371 189.858 228.688C190.515 229.005 191.274 229.164 192.136 229.164C193.609 229.164 194.686 228.892 195.366 228.348C196.046 227.781 196.51 227.022 196.76 226.07H199.616ZM196.93 220.732C196.93 219.893 196.839 219.134 196.658 218.454C196.476 217.774 196.193 217.196 195.808 216.72C195.422 216.221 194.924 215.836 194.312 215.564C193.7 215.292 192.963 215.156 192.102 215.156C190.538 215.156 189.314 215.632 188.43 216.584C187.568 217.536 187.058 218.919 186.9 220.732H196.93ZM214.756 228.586C214.122 229.357 213.317 230.025 212.342 230.592C211.368 231.136 210.155 231.408 208.704 231.408C207.82 231.408 207.004 231.295 206.256 231.068C205.531 230.864 204.896 230.547 204.352 230.116C203.831 229.663 203.423 229.107 203.128 228.45C202.834 227.793 202.686 227.022 202.686 226.138C202.686 224.937 202.936 223.962 203.434 223.214C203.956 222.466 204.636 221.877 205.474 221.446C206.336 221.015 207.299 220.709 208.364 220.528C209.43 220.347 210.529 220.233 211.662 220.188L214.688 220.086V219.406C214.688 217.91 214.371 216.833 213.736 216.176C213.102 215.519 212.07 215.19 210.642 215.19C209.237 215.19 208.206 215.428 207.548 215.904C206.891 216.357 206.46 216.992 206.256 217.808L203.57 217.502C203.888 215.893 204.647 214.725 205.848 214C207.05 213.252 208.682 212.878 210.744 212.878C212.014 212.878 213.079 213.037 213.94 213.354C214.824 213.649 215.538 214.079 216.082 214.646C216.626 215.213 217.012 215.915 217.238 216.754C217.488 217.593 217.612 218.533 217.612 219.576V231H214.756V228.586ZM214.688 222.194L211.866 222.296C210.665 222.341 209.668 222.455 208.874 222.636C208.081 222.817 207.446 223.067 206.97 223.384C206.517 223.679 206.188 224.053 205.984 224.506C205.803 224.959 205.712 225.481 205.712 226.07C205.712 226.954 205.973 227.668 206.494 228.212C207.038 228.733 207.922 228.994 209.146 228.994C210.892 228.994 212.252 228.563 213.226 227.702C214.201 226.841 214.688 225.662 214.688 224.166V222.194ZM222.103 206.724H225.061V215.87C225.787 214.918 226.625 214.181 227.577 213.66C228.529 213.139 229.651 212.878 230.943 212.878C232.19 212.878 233.278 213.105 234.207 213.558C235.159 214.011 235.941 214.646 236.553 215.462C237.188 216.278 237.653 217.253 237.947 218.386C238.265 219.497 238.423 220.732 238.423 222.092C238.423 223.543 238.242 224.857 237.879 226.036C237.517 227.192 236.995 228.178 236.315 228.994C235.635 229.81 234.808 230.445 233.833 230.898C232.881 231.329 231.805 231.544 230.603 231.544C229.583 231.544 228.586 231.34 227.611 230.932C226.659 230.501 225.798 229.776 225.027 228.756V231H222.103V206.724ZM225.027 222.704C225.027 223.837 225.152 224.812 225.401 225.628C225.673 226.421 226.036 227.079 226.489 227.6C226.943 228.121 227.487 228.507 228.121 228.756C228.756 228.983 229.447 229.096 230.195 229.096C230.921 229.096 231.589 228.971 232.201 228.722C232.836 228.473 233.38 228.076 233.833 227.532C234.287 226.965 234.638 226.24 234.887 225.356C235.159 224.472 235.295 223.395 235.295 222.126C235.295 220.834 235.148 219.757 234.853 218.896C234.581 218.012 234.219 217.309 233.765 216.788C233.312 216.267 232.791 215.893 232.201 215.666C231.635 215.439 231.045 215.326 230.433 215.326C229.663 215.326 228.949 215.462 228.291 215.734C227.634 215.983 227.056 216.369 226.557 216.89C226.081 217.389 225.707 218.035 225.435 218.828C225.163 219.599 225.027 220.494 225.027 221.514V222.704ZM242.458 213.422H245.416V231H242.458V213.422ZM242.356 206.724H245.518V210.158H242.356V206.724ZM250.095 206.724H253.053V231H250.095V206.724ZM257.732 213.422H260.69V231H257.732V213.422ZM257.63 206.724H260.792V210.158H257.63V206.724ZM266.32 215.768H263.6V213.422H266.32V208.628H269.278V213.422H273.936V215.768H269.278V226.07C269.278 226.931 269.471 227.623 269.856 228.144C270.242 228.665 270.831 228.926 271.624 228.926C272.123 228.926 272.554 228.892 272.916 228.824C273.302 228.756 273.653 228.665 273.97 228.552L274.48 230.83C274.027 230.989 273.528 231.113 272.984 231.204C272.463 231.317 271.84 231.374 271.114 231.374C270.117 231.374 269.312 231.227 268.7 230.932C268.088 230.637 267.601 230.218 267.238 229.674C266.876 229.13 266.626 228.484 266.49 227.736C266.377 226.988 266.32 226.172 266.32 225.288V215.768ZM277.684 234.74C278.318 234.967 278.953 235.08 279.588 235.08C280.313 235.08 280.868 234.887 281.254 234.502C281.662 234.139 282.058 233.448 282.444 232.428L283.158 230.558L275.712 213.422H279.146L284.688 227.226L289.754 213.422H293.018L285.334 232.666C285.016 233.459 284.699 234.151 284.382 234.74C284.064 235.352 283.713 235.873 283.328 236.304C282.942 236.735 282.478 237.052 281.934 237.256C281.412 237.483 280.766 237.596 279.996 237.596C279.452 237.596 278.964 237.562 278.534 237.494C278.103 237.426 277.627 237.301 277.106 237.12L277.684 234.74Z" fill="white"/>
</svg>
