<svg width="100" height="100" viewBox="0 0 100 100" fill="none" xmlns="http://www.w3.org/2000/svg">
<path d="M86.3058 33.8671L85.2783 36.2241C84.5267 37.9497 82.14 37.9497 81.3879 36.2241L80.3608 33.8671C78.5296 29.6645 75.2313 26.3184 71.1154 24.4878L67.95 23.0801C66.2388 22.3189 66.2388 19.8284 67.95 19.0672L70.9383 17.7381C75.16 15.8605 78.5175 12.3905 80.3171 8.04513L81.3721 5.49804C82.1075 3.72287 84.5592 3.72287 85.2942 5.49804L86.3492 8.04513C88.1492 12.3905 91.5067 15.8605 95.7283 17.7381L98.7163 19.0672C100.428 19.8284 100.428 22.3189 98.7163 23.0801L95.5513 24.4878C91.4354 26.3184 88.1371 29.6645 86.3058 33.8671ZM8.33334 16.6667C8.33334 14.3655 10.1988 12.5 12.5 12.5H58.3333L57.3333 19.8333H15.6667V80.1667H84.3333V45.8333H91.6667V83.3333C91.6667 85.6346 89.8013 87.5 87.5 87.5H12.5C10.1988 87.5 8.33334 85.6346 8.33334 83.3333V16.6667ZM29.1667 54.1667H35.5V70.8333H29.1667V54.1667ZM45.8333 29.1667H52.1667V70.8333H45.8333V29.1667ZM62.5 41.6667H68.8333V70.8333H62.5V41.6667Z" fill="white"/>
</svg>
