<svg width="100" height="100" viewBox="0 0 100 100" fill="none" xmlns="http://www.w3.org/2000/svg">
<path d="M54.1667 8.33333C33.4667 8.33333 16.6666 25.1333 16.6666 45.8333C16.6666 66.5333 33.4667 83.3333 54.1667 83.3333C74.8667 83.3333 91.6667 66.5333 91.6667 45.8333C91.6667 25.1333 74.8667 8.33333 54.1667 8.33333ZM54.1667 75C38.0521 75 25 61.9479 25 45.8333C25 29.7188 38.0521 16.6667 54.1667 16.6667C70.2812 16.6667 83.3333 29.7188 83.3333 45.8333C83.3333 61.9479 70.2812 75 54.1667 75ZM18.8112 75.2963L7.02624 87.0813L12.9187 92.9738L24.7037 81.1888L18.8112 75.2963Z" fill="white"/>
<path d="M65.3361 37.8963L54 31.3333L42.6639 37.8963L54 44.4593L65.3361 37.8963ZM41.3333 40.2073V53.3333L52.6667 59.8948V46.7687L41.3333 40.2073ZM55.3333 59.8948L66.6667 53.3333V40.2073L55.3333 46.7687V59.8948Z" fill="white"/>
</svg>
