<svg width="64" height="64" viewBox="0 0 64 64" fill="none" xmlns="http://www.w3.org/2000/svg">
<path fill-rule="evenodd" clip-rule="evenodd" d="M24.8462 6C23.8265 6 22.9376 6.62459 22.6903 7.51493L22 10H16.4444C13.9898 10 12 11.7909 12 14V52C12 54.2091 13.9898 56 16.4444 56H47.5556C50.0102 56 52 54.2091 52 52V14C52 11.7909 50.0102 10 47.5556 10H42L41.3097 7.51493C41.0624 6.62459 40.1735 6 39.1538 6H24.8462ZM16.2227 12C15.1181 12 14.2227 12.8954 14.2227 14V52C14.2227 53.1046 15.1181 54 16.2227 54H47.7782C48.8828 54 49.7782 53.1046 49.7782 52V14C49.7782 12.8954 48.8828 12 47.7782 12H16.2227Z" fill="#2C4C89"/>
<rect x="14.2227" y="12" width="35.5556" height="42" rx="2" fill="#F7F7F7"/>
<rect x="22" y="30.25" width="19.5" height="3.25" rx="1.2" fill="#2C4C89"/>
<rect x="22" y="24.25" width="19.5" height="3.25" rx="1.2" fill="#2C4C89"/>
<rect x="22" y="36.75" width="19.5" height="3.25" rx="1.2" fill="#2C4C89"/>
</svg>
