<svg width="80" height="80" viewBox="0 0 80 80" fill="none" xmlns="http://www.w3.org/2000/svg">
<path d="M40 1.5C47.6146 1.5 55.0582 3.75798 61.3895 7.98842C67.7208 12.2189 72.6554 18.2317 75.5694 25.2667C78.4833 32.3016 79.2458 40.0427 77.7602 47.511C76.2747 54.9792 72.6079 61.8393 67.2236 67.2236C61.8393 72.6079 54.9793 76.2747 47.511 77.7602C40.0427 79.2458 32.3017 78.4833 25.2667 75.5693C18.2317 72.6554 12.2189 67.7207 7.98844 61.3894C3.758 55.0582 1.50002 47.6146 1.50002 40C1.51166 29.7927 5.57164 20.0069 12.7893 12.7892C20.0069 5.57162 29.7928 1.51165 40 1.5ZM40 0C32.0888 0 24.3552 2.34596 17.7772 6.74121C11.1992 11.1365 6.07234 17.3836 3.04484 24.6927C0.0173311 32.0017 -0.774802 40.0444 0.768607 47.8036C2.31202 55.5628 6.12165 62.6902 11.7157 68.2843C17.3098 73.8784 24.4372 77.688 32.1964 79.2314C39.9556 80.7748 47.9983 79.9827 55.3073 76.9552C62.6164 73.9277 68.8635 68.8008 73.2588 62.2228C77.654 55.6448 80 47.9112 80 40C80 29.3913 75.7857 19.2172 68.2843 11.7157C60.7828 4.21427 50.6087 0 40 0V0Z" fill="white"/>
<path d="M39.8414 31.758C44.4805 31.758 48.2547 35.5321 48.2547 40.1712C48.2547 44.8102 44.4805 48.5843 39.8414 48.5843C35.2024 48.5843 31.4282 44.8102 31.4282 40.1714C31.4282 35.5327 35.2024 31.7583 39.8414 31.7583V31.758ZM39.8414 29.4009C33.9042 29.4009 29.0708 34.2343 29.0708 40.1716C29.0708 46.1088 33.9042 50.9422 39.8414 50.9422C45.7787 50.9422 50.6121 46.1088 50.6121 40.1716C50.6121 34.2343 45.7787 29.4009 39.8414 29.4009Z" fill="#E1E8F6"/>
<path d="M39.713 31.7159C42.617 31.7161 45.4668 32.5021 47.9602 33.9906C50.4537 35.4791 52.4979 37.6146 53.876 40.1707C52.4986 42.7269 50.455 44.8626 47.962 46.3512C45.4689 47.8398 42.6194 48.6258 39.7157 48.6259C36.812 48.6259 33.9625 47.84 31.4694 46.3515C28.9763 44.8629 26.9326 42.7273 25.5551 40.1712C26.9203 37.6372 28.9404 35.516 31.4047 34.0288C33.8691 32.5416 36.6873 31.7428 39.5655 31.7159H39.7132H39.713ZM39.7132 29.2601C32.3666 29.2601 26.0189 33.579 23.0787 39.8184C23.0269 39.9288 23 40.0492 23 40.1712C23 40.2931 23.0269 40.4136 23.0787 40.524C26.0191 46.7617 32.3673 51.0822 39.7131 51.0822C47.0589 51.0822 53.4119 46.7626 56.3525 40.524C56.4043 40.4136 56.4312 40.2931 56.4312 40.1712C56.4312 40.0492 56.4043 39.9288 56.3525 39.8184C53.4138 33.579 47.0598 29.2607 39.7131 29.2607V29.2601H39.7132Z" fill="white"/>
<path d="M37.0366 39.4112C38.3886 39.4112 39.4846 38.3152 39.4846 36.9632C39.4846 35.6112 38.3886 34.5152 37.0366 34.5152C35.6846 34.5152 34.5886 35.6112 34.5886 36.9632C34.5886 38.3152 35.6846 39.4112 37.0366 39.4112Z" fill="white"/>
<path d="M52.6448 50.9137V53.9761C52.6442 54.3739 52.4859 54.7553 52.2046 55.0365C51.9233 55.3178 51.5419 55.476 51.1441 55.4765H28.2872C27.8893 55.476 27.5079 55.3178 27.2266 55.0365C26.9453 54.7553 26.787 54.3739 26.7864 53.9761V50.9246C25.9017 50.37 25.0535 49.7593 24.2468 49.0962V53.9761C24.248 55.0473 24.6741 56.0743 25.4315 56.8317C26.189 57.5892 27.216 58.0152 28.2872 58.0164H51.1441C52.2153 58.0152 53.2422 57.5892 53.9997 56.8317C54.7571 56.0743 55.1832 55.0473 55.1844 53.9761V49.0823C54.3778 49.7464 53.5295 50.3581 52.6448 50.9137Z" fill="#DFE6F4"/>
<path d="M26.7864 29.3608V26.0403C26.787 25.6425 26.9453 25.2611 27.2266 24.9798C27.5079 24.6986 27.8893 24.5403 28.2872 24.5399H48.5898L52.6448 28.5083V29.4851C53.5301 30.0466 54.3784 30.6646 55.1845 31.335V27.4397L49.6255 22H28.2872C27.216 22.0012 26.189 22.4273 25.4315 23.1847C24.6741 23.9422 24.248 24.9691 24.2468 26.0403V31.1699C25.054 30.5135 25.9023 29.9092 26.7864 29.3608Z" fill="#DFE6F4"/>
</svg>
