<svg width="255" height="28" viewBox="0 0 255 28" fill="none" xmlns="http://www.w3.org/2000/svg">
<path d="M16.1472 14.4981C16.1472 18.2961 13.9632 22.4152 8.11777 22.4152C3.85413 22.4312 -1.83779e-07 20.0224 -1.83779e-07 14.4981C-1.83779e-07 9.89725 2.90666 6.35627 8.66377 6.66942C14.7902 7.01469 16.1472 11.7601 16.1472 14.4981ZM5.21111 11.6075C4.69057 12.4709 4.43121 13.4665 4.46437 14.474C4.46437 16.8026 5.61258 18.9143 8.09368 18.9143C10.5748 18.9143 11.6587 16.9712 11.6587 14.6667C11.7144 14.0018 11.6335 13.3326 11.4208 12.7001C11.2082 12.0677 10.8683 11.4854 10.4222 10.9893C10.0727 10.6774 9.66026 10.4443 9.21279 10.3057C8.76532 10.1672 8.29329 10.1265 7.82871 10.1863C7.30647 10.1751 6.79034 10.3003 6.33129 10.5495C5.87223 10.7988 5.48613 11.1634 5.21111 11.6075V11.6075Z" fill="white"/>
<path d="M55.4273 8.3635C55.8303 7.86099 56.3405 7.45496 56.9207 7.17514C57.7897 6.83161 58.7163 6.65719 59.6507 6.66126C60.5758 6.63345 61.4936 6.8319 62.3246 7.23938C63.9304 8.04232 64.3078 9.42339 64.3078 11.76V22.0376H59.9157V13.5987C59.9913 12.8433 59.9232 12.0805 59.715 11.3505C59.5401 10.9803 59.2567 10.6721 58.9024 10.467C58.5481 10.2619 58.1398 10.1696 57.7317 10.2022C55.4032 10.2022 55.4032 12.0731 55.4032 13.944V22.0376H50.9629V7.04667H55.4273V8.3635Z" fill="white"/>
<path d="M48.8591 18.1596C48.4496 19.0187 47.1488 22.4152 41.3756 22.4152C36.9113 22.4152 33.7798 19.6852 33.7798 14.7631C33.7798 11.1338 35.5623 6.66944 41.4961 6.66944C42.4859 6.58863 43.4815 6.72177 44.4153 7.05982C45.3491 7.39787 46.1992 7.93292 46.9079 8.62862C48.8671 10.7323 48.9795 13.6631 49.0357 15.3653H38.3004C38.3004 17.2362 39.3362 19.107 41.7209 19.107C44.1056 19.107 44.9327 17.5012 45.5188 16.4573L48.8591 18.1596ZM44.4589 12.6032C44.4302 11.8254 44.1483 11.0783 43.656 10.4754C43.0647 9.94224 42.2921 9.65503 41.4961 9.67245C41.0739 9.67084 40.656 9.7571 40.2689 9.92575C39.8819 10.0944 39.5341 10.3417 39.2478 10.652C38.77 11.216 38.461 11.9035 38.3566 12.6353L44.4589 12.6032Z" fill="white"/>
<path d="M110.477 10.1543H113.424V7.0469H110.517V3.8833H106.117V7.03887H105.394L103.379 10.1543H106.093V17.2925C106.093 18.7297 106.093 19.7977 106.727 20.6889C107.675 22.07 109.345 22.1583 110.87 22.1583C111.652 22.1451 112.43 22.0672 113.199 21.9255V18.4728L111.593 18.529C110.413 18.529 110.413 17.7261 110.445 16.8348L110.477 10.1543Z" fill="white"/>
<path d="M66.5239 3.8833H70.924V7.03887H75.5008L73.4854 10.1543H70.8678V16.8107C70.8678 17.7341 70.8678 18.5049 72.016 18.5049L73.6219 18.4487V21.9014C72.8535 22.0431 72.0747 22.121 71.2934 22.1342C69.7678 22.1342 68.0816 22.0459 67.1502 20.6648C66.548 19.7736 66.5159 18.7056 66.5159 17.2684L66.5239 3.8833Z" fill="white"/>
<path d="M117.495 10.1543H116.949V7.50455H115.945V7.04688H118.475V7.50455H117.487L117.495 10.1543ZM121.759 10.1543H121.221V8.23523V7.60091L121.068 8.12282L120.434 10.1543H119.944L119.318 8.12282L119.157 7.60894V8.23523V10.1543H118.635V7.04688H119.374L120.177 9.50388L120.94 7.04688H121.678L121.759 10.1543Z" fill="white"/>
<path d="M89.3356 18.1676L88.5327 19.4683C87.7298 20.6246 86.2604 22.4071 82.0048 22.4071C77.5404 22.4071 74.5454 19.6771 74.5454 14.7551C74.5454 11.1257 76.3279 6.66138 82.2617 6.66138C83.2515 6.58057 84.2471 6.71371 85.1809 7.05177C86.1147 7.38982 86.9648 7.92486 87.6735 8.62056C89.6327 10.7243 89.7451 13.655 89.8014 15.3573H79.066C79.066 17.2281 79.9653 19.099 82.35 19.099C84.7348 19.099 85.4655 17.4931 86.0115 16.4493L89.3356 18.1676ZM85.1844 12.6032C85.1557 11.8254 84.8737 11.0783 84.3815 10.4754C83.7902 9.94221 83.0176 9.655 82.2216 9.67242C81.7994 9.67081 81.3814 9.75707 80.9944 9.92572C80.6073 10.0944 80.2596 10.3417 79.9733 10.652C79.4954 11.216 79.1865 11.9035 79.082 12.6353L85.1844 12.6032Z" fill="white"/>
<path d="M104.463 22.0378L98.9547 14.1449L103.548 7.03882H98.505L96.3371 10.3951L94.0005 7.03882H88.958L93.9122 14.1449L88.8135 22.0378H93.856L96.5298 17.8946L99.4204 22.0378H104.463Z" fill="white"/>
<path d="M22.2337 8.36379C22.7152 7.79596 23.3218 7.34746 24.0059 7.05351C24.6899 6.75955 25.4328 6.62814 26.1761 6.66958C29.8617 6.66958 32.4471 9.46383 32.4471 14.4662C32.4471 17.5414 31.323 22.4073 26.0236 22.4073C25.3069 22.4241 24.5954 22.2807 23.9412 21.9876C23.2869 21.6945 22.7063 21.2591 22.2417 20.7131V27.0001H17.7773V7.04696H22.2417L22.2337 8.36379ZM25.2287 10.1222C24.7886 10.1204 24.3542 10.221 23.9598 10.4161C23.5654 10.6112 23.2218 10.8955 22.9563 11.2464C22.2922 12.211 21.9673 13.3691 22.0329 14.5384C21.9501 15.7817 22.3305 17.0117 23.1009 17.9911C23.3511 18.2762 23.6583 18.5056 24.0027 18.6647C24.347 18.8237 24.7209 18.9088 25.1002 18.9145C27.2601 18.9145 28.2076 16.6421 28.2076 14.4421C28.2076 12.5953 27.6616 10.6361 25.8469 10.2106C25.6453 10.1564 25.4374 10.1294 25.2287 10.1303V10.1222Z" fill="white"/>
<path d="M129 2H128V26H129V2Z" fill="white"/>
<path d="M138.659 7.006H140.591V22H138.659V7.006ZM143.447 11.143H145.253V12.802C145.785 12.088 146.373 11.577 147.017 11.269C147.661 10.961 148.34 10.807 149.054 10.807C150.286 10.807 151.196 11.143 151.784 11.815C152.386 12.487 152.687 13.474 152.687 14.776V22H150.86V15.133C150.86 14.125 150.678 13.418 150.314 13.012C149.95 12.592 149.39 12.382 148.634 12.382C148.228 12.382 147.822 12.452 147.416 12.592C147.024 12.732 146.667 12.956 146.345 13.264C145.995 13.572 145.729 13.901 145.547 14.251C145.365 14.587 145.274 15.028 145.274 15.574V22H143.447V11.143ZM155.214 11.143H157.02V12.802C157.552 12.088 158.14 11.577 158.784 11.269C159.428 10.961 160.107 10.807 160.821 10.807C162.053 10.807 162.963 11.143 163.551 11.815C164.153 12.487 164.454 13.474 164.454 14.776V22H162.627V15.133C162.627 14.125 162.445 13.418 162.081 13.012C161.717 12.592 161.157 12.382 160.401 12.382C159.995 12.382 159.589 12.452 159.183 12.592C158.791 12.732 158.434 12.956 158.112 13.264C157.762 13.572 157.496 13.901 157.314 14.251C157.132 14.587 157.041 15.028 157.041 15.574V22H155.214V11.143ZM171.852 22.336C171.026 22.336 170.291 22.203 169.647 21.937C169.003 21.671 168.457 21.293 168.009 20.803C167.561 20.313 167.218 19.711 166.98 18.997C166.742 18.283 166.623 17.485 166.623 16.603C166.623 15.721 166.749 14.923 167.001 14.209C167.253 13.495 167.61 12.886 168.072 12.382C168.534 11.878 169.087 11.493 169.731 11.227C170.389 10.947 171.117 10.807 171.915 10.807C172.727 10.807 173.455 10.94 174.099 11.206C174.743 11.472 175.289 11.857 175.737 12.361C176.199 12.851 176.549 13.446 176.787 14.146C177.025 14.846 177.144 15.637 177.144 16.519C177.144 17.415 177.018 18.22 176.766 18.934C176.528 19.648 176.178 20.257 175.716 20.761C175.268 21.265 174.715 21.657 174.057 21.937C173.399 22.203 172.664 22.336 171.852 22.336ZM171.873 20.824C172.461 20.824 172.965 20.719 173.385 20.509C173.805 20.299 174.148 20.005 174.414 19.627C174.694 19.249 174.897 18.801 175.023 18.283C175.149 17.751 175.212 17.17 175.212 16.54C175.212 15.924 175.149 15.357 175.023 14.839C174.897 14.321 174.694 13.88 174.414 13.516C174.148 13.138 173.805 12.844 173.385 12.634C172.965 12.424 172.461 12.319 171.873 12.319C171.285 12.319 170.781 12.424 170.361 12.634C169.955 12.844 169.612 13.138 169.332 13.516C169.066 13.88 168.87 14.321 168.744 14.839C168.618 15.357 168.555 15.931 168.555 16.561C168.555 17.191 168.618 17.765 168.744 18.283C168.87 18.801 169.066 19.249 169.332 19.627C169.598 20.005 169.941 20.299 170.361 20.509C170.781 20.719 171.285 20.824 171.873 20.824ZM177.712 11.143H179.833L183.067 19.963L186.364 11.143H188.38L184.012 22H182.059L177.712 11.143ZM196.168 20.509C195.776 20.985 195.279 21.398 194.677 21.748C194.075 22.084 193.326 22.252 192.43 22.252C191.884 22.252 191.38 22.182 190.918 22.042C190.47 21.916 190.078 21.72 189.742 21.454C189.42 21.174 189.168 20.831 188.986 20.425C188.804 20.019 188.713 19.543 188.713 18.997C188.713 18.255 188.867 17.653 189.175 17.191C189.497 16.729 189.917 16.365 190.435 16.099C190.967 15.833 191.562 15.644 192.22 15.532C192.878 15.42 193.557 15.35 194.257 15.322L196.126 15.259V14.839C196.126 13.915 195.93 13.25 195.538 12.844C195.146 12.438 194.509 12.235 193.627 12.235C192.759 12.235 192.122 12.382 191.716 12.676C191.31 12.956 191.044 13.348 190.918 13.852L189.259 13.663C189.455 12.669 189.924 11.948 190.666 11.5C191.408 11.038 192.416 10.807 193.69 10.807C194.474 10.807 195.132 10.905 195.664 11.101C196.21 11.283 196.651 11.549 196.987 11.899C197.323 12.249 197.561 12.683 197.701 13.201C197.855 13.719 197.932 14.3 197.932 14.944V22H196.168V20.509ZM196.126 16.561L194.383 16.624C193.641 16.652 193.025 16.722 192.535 16.834C192.045 16.946 191.653 17.1 191.359 17.296C191.079 17.478 190.876 17.709 190.75 17.989C190.638 18.269 190.582 18.591 190.582 18.955C190.582 19.501 190.743 19.942 191.065 20.278C191.401 20.6 191.947 20.761 192.703 20.761C193.781 20.761 194.621 20.495 195.223 19.963C195.825 19.431 196.126 18.703 196.126 17.779V16.561ZM201.126 12.592H199.446V11.143H201.126V8.182H202.953V11.143H205.83V12.592H202.953V18.955C202.953 19.487 203.072 19.914 203.31 20.236C203.548 20.558 203.912 20.719 204.402 20.719C204.71 20.719 204.976 20.698 205.2 20.656C205.438 20.614 205.655 20.558 205.851 20.488L206.166 21.895C205.886 21.993 205.578 22.07 205.242 22.126C204.92 22.196 204.535 22.231 204.087 22.231C203.471 22.231 202.974 22.14 202.596 21.958C202.218 21.776 201.917 21.517 201.693 21.181C201.469 20.845 201.315 20.446 201.231 19.984C201.161 19.522 201.126 19.018 201.126 18.472V12.592ZM216.645 18.955C216.463 20.005 215.994 20.831 215.238 21.433C214.496 22.035 213.425 22.336 212.025 22.336C210.373 22.336 209.106 21.839 208.224 20.845C207.342 19.837 206.901 18.437 206.901 16.645C206.901 15.707 207.027 14.874 207.279 14.146C207.531 13.418 207.881 12.809 208.329 12.319C208.791 11.829 209.337 11.458 209.967 11.206C210.597 10.94 211.283 10.807 212.025 10.807C212.865 10.807 213.586 10.94 214.188 11.206C214.79 11.472 215.28 11.843 215.658 12.319C216.05 12.781 216.337 13.334 216.519 13.978C216.715 14.622 216.813 15.329 216.813 16.099V17.023H208.749C208.749 17.569 208.819 18.08 208.959 18.556C209.113 19.018 209.323 19.424 209.589 19.774C209.869 20.11 210.212 20.376 210.618 20.572C211.024 20.768 211.493 20.866 212.025 20.866C212.935 20.866 213.6 20.698 214.02 20.362C214.44 20.012 214.727 19.543 214.881 18.955H216.645ZM214.986 15.658C214.986 15.14 214.93 14.671 214.818 14.251C214.706 13.831 214.531 13.474 214.293 13.18C214.055 12.872 213.747 12.634 213.369 12.466C212.991 12.298 212.536 12.214 212.004 12.214C211.038 12.214 210.282 12.508 209.736 13.096C209.204 13.684 208.889 14.538 208.791 15.658H214.986ZM223.743 7.006H233.445V8.707H225.675V13.411H233.025V15.133H225.675V20.299H233.844L233.529 22H223.743V7.006ZM234.923 7.006H237.107L241.664 19.501L246.305 7.006H248.384L242.63 22H240.677L234.923 7.006Z" fill="white"/>
<path d="M250.55 10.1074H250.004V7.45768H249V7H251.529V7.45768H250.542L250.55 10.1074ZM254.813 10.1074H254.275V8.18836V7.55403L254.123 8.07595L253.488 10.1074H252.999L252.372 8.07595L252.212 7.56206V8.18836V10.1074H251.69V7H252.429L253.232 9.45701L253.994 7H254.733L254.813 10.1074Z" fill="white"/>
</svg>
