<svg width="80" height="80" viewBox="0 0 80 80" fill="none" xmlns="http://www.w3.org/2000/svg">
<path d="M40 1.5C47.6146 1.5 55.0582 3.75798 61.3895 7.98842C67.7208 12.2189 72.6554 18.2317 75.5694 25.2667C78.4833 32.3016 79.2458 40.0427 77.7602 47.511C76.2747 54.9792 72.6079 61.8393 67.2236 67.2236C61.8393 72.6079 54.9793 76.2747 47.511 77.7602C40.0427 79.2458 32.3017 78.4833 25.2667 75.5693C18.2317 72.6554 12.2189 67.7207 7.98844 61.3894C3.758 55.0582 1.50002 47.6146 1.50002 40C1.51166 29.7927 5.57164 20.0069 12.7893 12.7892C20.0069 5.57162 29.7928 1.51165 40 1.5ZM40 0C32.0888 0 24.3552 2.34596 17.7772 6.74121C11.1992 11.1365 6.07234 17.3836 3.04484 24.6927C0.0173311 32.0017 -0.774802 40.0444 0.768607 47.8036C2.31202 55.5628 6.12165 62.6902 11.7157 68.2843C17.3098 73.8784 24.4372 77.688 32.1964 79.2314C39.9556 80.7748 47.9983 79.9827 55.3073 76.9552C62.6164 73.9277 68.8635 68.8008 73.2588 62.2228C77.654 55.6448 80 47.9112 80 40C80 29.3913 75.7857 19.2172 68.2843 11.7157C60.7828 4.21427 50.6087 0 40 0V0Z" fill="white"/>
<path fill-rule="evenodd" clip-rule="evenodd" d="M46.5565 19H55.4575C56.3121 19 57.005 19.6928 57.005 20.5475V29.4485C57.005 30.3031 56.3121 30.996 55.4575 30.996H46.5565C45.7018 30.996 45.009 30.3031 45.009 29.4485V20.5475C45.009 19.6928 45.7018 19 46.5565 19ZM28.7002 56.0339H45.0267V54.0345H28.7002C28.5205 54.0325 28.3488 53.9602 28.2218 53.8331C28.0948 53.7061 28.0225 53.5344 28.0204 53.3548V49.7133C28.1586 49.631 28.2889 49.5304 28.4078 49.4115L36.4435 41.3758C37.2149 40.6044 37.2149 39.3537 36.4435 38.5823L28.4078 30.5466C28.2889 30.4277 28.1586 30.3271 28.0204 30.2449V26.7237C28.0225 26.5441 28.0948 26.3724 28.2218 26.2454C28.3488 26.1183 28.5205 26.046 28.7002 26.044H44.9847V24.0446H28.7002C27.9898 24.0452 27.3087 24.3276 26.8063 24.8299C26.304 25.3322 26.0216 26.0133 26.0211 26.7237V30.2335C25.8757 30.3178 25.7387 30.4221 25.6142 30.5466L17.5786 38.5823C16.8071 39.3537 16.8071 40.6044 17.5786 41.3758L25.6142 49.4115C25.7387 49.536 25.8757 49.6404 26.0211 49.7247V53.3548C26.0216 54.0651 26.304 54.7463 26.8063 55.2486C27.3087 55.7509 27.9898 56.0333 28.7002 56.0339ZM55.4829 49.046H46.5819C45.7273 49.046 45.0344 49.7388 45.0344 50.5935V59.4945C45.0344 60.3491 45.7273 61.042 46.5819 61.042H55.4829C56.3376 61.042 57.0304 60.3491 57.0304 59.4945V50.5935C57.0304 49.7388 56.3376 49.046 55.4829 49.046Z" fill="white"/>
</svg>
